<?xml version="1.0" encoding="UTF-8" standalone="no"?>
<svg
   xmlns:dc="http://purl.org/dc/elements/1.1/"
   xmlns:cc="http://creativecommons.org/ns#"
   xmlns:rdf="http://www.w3.org/1999/02/22-rdf-syntax-ns#"
   xmlns:svg="http://www.w3.org/2000/svg"
   xmlns="http://www.w3.org/2000/svg"
   xmlns:sodipodi="http://sodipodi.sourceforge.net/DTD/sodipodi-0.dtd"
   xmlns:inkscape="http://www.inkscape.org/namespaces/inkscape"
   inkscape:version="1.0 (4035a4fb49, 2020-05-01)"
   inkscape:export-ydpi="96"
   inkscape:export-xdpi="96"
   inkscape:export-filename="D:\Repositories\portfolio\webApp\static\images\neolithic-transition\icon.png"
   sodipodi:docname="icon.svg"
   xml:space="preserve"
   style="enable-background:new 0 0 512.003 512.003;"
   viewBox="0 0 512.003 512.003"
   y="0px"
   x="0px"
   id="Capa_1"
   version="1.1"><metadata
   id="metadata49"><rdf:RDF><cc:Work
       rdf:about=""><dc:format>image/svg+xml</dc:format><dc:type
         rdf:resource="http://purl.org/dc/dcmitype/StillImage" /></cc:Work></rdf:RDF></metadata><defs
   id="defs47" /><sodipodi:namedview
   inkscape:current-layer="Capa_1"
   inkscape:window-maximized="0"
   inkscape:window-y="0"
   inkscape:window-x="0"
   inkscape:cy="256.0015"
   inkscape:cx="256.0015"
   inkscape:zoom="1.9687385"
   showgrid="false"
   id="namedview45"
   inkscape:window-height="480"
   inkscape:window-width="776"
   inkscape:pageshadow="2"
   inkscape:pageopacity="0"
   guidetolerance="10"
   gridtolerance="10"
   objecttolerance="10"
   borderopacity="1"
   bordercolor="#666666"
   pagecolor="#ffffff" />
<circle
   id="circle2"
   r="256"
   cy="256"
   cx="256.001"
   style="fill:#00BAFF;" />
<path
   id="path4"
   d="M511.948,260.265L390.542,138.859l-0.736,55.138L256.001,60.193l-1.251,118.482l-54.026,15.232  l53.302,53.302l-0.261,24.7l-133.051-133.05l0.307,92.288l-38.511,8.336l28.664,28.664l-26.463,23.707l29.217,29.217l-31.418,19.22  l39.004,39.004l0.315,94.752C160.846,498.107,206.798,512,256.001,512C395.961,512,509.668,399.681,511.948,260.265z"
   style="fill:#008CC3;" />
<path
   id="path6"
   d="M270.898,212.192c29.696,0,53.77-24.073,53.77-53.77v-14.897h-14.897  c-18.054,0-34.018,8.908-43.77,22.558v-6.891l1.82-1.819c23.573-23.57,23.574-61.787,0.002-85.358l-11.822-11.822l-11.82,11.819  c-23.573,23.57-23.574,61.787-0.002,85.358l1.822,1.822v6.892c-9.751-13.65-25.715-22.558-43.77-22.558h-14.897v14.897  c0,29.696,24.073,53.77,53.77,53.77h4.897v22.558c-9.751-13.65-25.715-22.558-43.77-22.558h-14.897v14.897  c0,29.696,24.073,53.77,53.77,53.77h4.897v22.558c-9.751-13.65-25.715-22.558-43.77-22.558h-14.897v14.897  c0,29.696,24.073,53.77,53.77,53.77h4.897V511.79c3.319,0.128,6.649,0.213,10,0.213c3.351,0,6.681-0.085,10-0.213V349.525h4.897  c29.696,0,53.77-24.073,53.77-53.77v-14.897h-14.897c-18.054,0-34.018,8.907-43.77,22.558v-22.558h4.897  c29.696,0,53.77-24.074,53.77-53.77v-14.897h-14.897c-18.054,0-34.018,8.908-43.77,22.558v-22.558h4.897V212.192z"
   style="fill:#FFCF35;" />
<path
   id="path8"
   d="M256.001,512c3.351,0,6.681-0.085,10-0.213V349.525h4.897c29.696,0,53.77-24.073,53.77-53.77v-14.897  h-14.897c-18.054,0-34.018,8.907-43.77,22.558v-22.558h4.897c29.696,0,53.77-24.074,53.77-53.77v-14.897h-14.897  c-18.054,0-34.018,8.908-43.77,22.558v-22.558h4.897c29.696,0,53.77-24.073,53.77-53.77v-14.897h-14.897  c-18.054,0-34.018,8.908-43.77,22.558v-6.891l1.82-1.819c23.573-23.57,23.574-61.787,0.002-85.358l-11.822-11.821V512z"
   style="fill:#FFB344;" />
<path
   id="path10"
   d="M131.649,250.433c21.798,0,39.469-17.671,39.469-39.469v-10.935h-10.935  c-13.253,0-24.971,6.538-32.129,16.558v-5.058l1.336-1.336c17.304-17.301,17.304-45.354,0.001-62.657l-8.677-8.677l-8.677,8.675  c-17.303,17.301-17.304,45.354-0.001,62.656l1.337,1.338v5.059c-7.158-10.02-18.876-16.558-32.129-16.558H70.31v10.935  c0,21.798,17.671,39.469,39.469,39.469h3.594v16.558c-7.158-10.02-18.876-16.558-32.129-16.558H70.31v10.935  c0,21.798,17.671,39.469,39.469,39.469h3.594v16.559c-7.158-10.02-18.876-16.558-32.129-16.558H70.309v10.935  c0,21.798,17.671,39.469,39.469,39.469h3.594v117.37c4.782,3.214,9.678,6.271,14.681,9.164V351.241h3.594  c21.798,0,39.469-17.671,39.469-39.469v-10.935h-10.935c-13.253,0-24.971,6.538-32.129,16.558v-16.558h3.594  c21.798,0,39.469-17.671,39.469-39.469v-10.935H160.18c-13.253,0-24.971,6.538-32.129,16.558v-16.558L131.649,250.433  L131.649,250.433z"
   style="fill:#FFECB3;" />
<path
   id="path12"
   d="M401.477,250.433c21.798,0,39.469-17.671,39.469-39.469v-10.935H430.01  c-13.253,0-24.971,6.539-32.129,16.558v-5.058l1.336-1.336c17.303-17.301,17.304-45.354,0.002-62.657l-8.678-8.677l-8.677,8.675  c-17.303,17.301-17.304,45.354-0.001,62.656l1.337,1.337v5.059c-7.158-10.02-18.876-16.558-32.129-16.558h-10.935v10.935  c0,21.798,17.671,39.469,39.469,39.469h3.594v16.558c-7.158-10.02-18.876-16.558-32.129-16.558h-10.935v10.935  c0,21.798,17.671,39.469,39.469,39.469h3.594v16.558c-7.158-10.02-18.876-16.558-32.129-16.558h-10.935v10.935  c0,21.798,17.671,39.469,39.469,39.469h3.594v126.968c5.004-2.871,9.896-5.915,14.681-9.106V351.241h3.594  c21.798,0,39.469-17.671,39.469-39.469v-10.935h-10.935c-13.253,0-24.971,6.539-32.129,16.558v-16.558h3.594  c21.798,0,39.469-17.671,39.469-39.469v-10.935h-10.935c-13.253,0-24.971,6.539-32.129,16.558v-16.558L401.477,250.433  L401.477,250.433z"
   style="fill:#FFD863;" />
<g
   id="g14">
</g>
<g
   id="g16">
</g>
<g
   id="g18">
</g>
<g
   id="g20">
</g>
<g
   id="g22">
</g>
<g
   id="g24">
</g>
<g
   id="g26">
</g>
<g
   id="g28">
</g>
<g
   id="g30">
</g>
<g
   id="g32">
</g>
<g
   id="g34">
</g>
<g
   id="g36">
</g>
<g
   id="g38">
</g>
<g
   id="g40">
</g>
<g
   id="g42">
</g>
</svg>
