<?xml version="1.0" standalone="no"?>
<!DOCTYPE svg PUBLIC "-//W3C//DTD SVG 20010904//EN"
 "http://www.w3.org/TR/2001/REC-SVG-20010904/DTD/svg10.dtd">
<svg version="1.0" xmlns="http://www.w3.org/2000/svg"
 width="512.000000pt" height="512.000000pt" viewBox="0 0 512.000000 512.000000"
 preserveAspectRatio="xMidYMid meet">
<metadata>
Created by potrace 1.11, written by Peter Selinger 2001-2013
</metadata>
<g transform="translate(0.000000,512.000000) scale(0.100000,-0.100000)"
fill="#000000" stroke="none">
<path d="M2379 5116 c-2 -2 -42 -6 -88 -10 -267 -20 -573 -105 -801 -223 -133
-68 -155 -82 -267 -165 -310 -231 -540 -585 -588 -906 -3 -21 -7 -48 -10 -61
-26 -134 -23 -446 6 -621 6 -36 13 -78 16 -95 2 -16 9 -48 15 -70 5 -22 12
-51 15 -65 10 -56 76 -237 114 -314 23 -44 70 -119 105 -166 104 -139 164
-276 189 -431 3 -19 9 -59 14 -89 5 -30 10 -111 10 -180 1 -68 4 -126 6 -128
7 -7 161 151 207 213 109 147 196 314 228 439 15 58 19 107 18 218 -1 175 7
260 34 341 36 113 88 179 176 225 78 40 133 52 233 49 113 -4 197 -42 278
-126 109 -113 124 -167 124 -426 0 -212 -23 -382 -73 -539 -36 -113 -83 -192
-149 -252 -54 -49 -88 -102 -119 -186 -20 -54 -48 -159 -56 -213 -27 -170 -36
-274 -41 -467 -3 -118 -1 -138 13 -151 14 -12 615 -435 640 -451 4 -2 36 2 72
8 76 14 201 13 284 -3 32 -6 144 -47 250 -90 308 -129 444 -169 594 -177 172
-10 257 40 328 191 69 146 95 262 99 443 1 90 -2 127 -19 242 -5 34 -24 105
-43 160 -24 73 -27 91 -27 170 0 80 21 136 64 175 22 19 22 19 41 -5 10 -14
24 -42 31 -62 6 -21 13 -38 15 -38 17 0 89 113 104 162 10 34 13 185 5 226
-14 67 -90 147 -185 194 -116 58 -201 41 -369 -73 -75 -52 -101 -72 -176 -140
l-40 -37 -29 32 c-16 17 -87 92 -157 166 -70 74 -142 151 -160 170 -46 49
-280 297 -373 394 l-77 81 5 80 c3 44 8 105 10 135 3 30 7 84 9 120 5 59 15
185 21 250 1 14 3 46 3 72 l2 48 79 39 c317 156 505 400 536 694 2 21 7 42 10
47 7 11 80 5 185 -15 63 -12 245 -90 343 -147 26 -15 53 -27 59 -25 9 2 96
-309 124 -441 2 -13 12 -49 20 -80 8 -32 17 -68 20 -82 3 -14 9 -41 14 -60 10
-38 20 -91 25 -129 4 -35 -38 -73 -108 -99 -32 -12 -65 -22 -73 -22 -21 0 -16
-13 53 -124 50 -80 72 -117 143 -241 53 -93 113 -219 129 -269 33 -108 -3
-205 -100 -270 -25 -17 -55 -37 -65 -44 -11 -7 9 1 42 19 152 76 199 195 140
351 -43 114 -142 307 -238 461 -26 43 -48 80 -48 83 0 2 7 4 15 4 22 0 84 34
119 64 39 35 44 88 16 196 -32 127 -105 375 -161 547 l-50 152 51 67 c152 199
180 380 83 554 -169 304 -506 529 -968 645 -71 18 -150 36 -175 39 -25 3 -54
8 -65 10 -11 2 -49 7 -85 11 -36 4 -74 9 -85 12 -24 5 -511 14 -516 9z"/>
</g>
</svg>
