<?xml version="1.0" encoding="UTF-8" standalone="no"?>
<svg
   xmlns:dc="http://purl.org/dc/elements/1.1/"
   xmlns:cc="http://creativecommons.org/ns#"
   xmlns:rdf="http://www.w3.org/1999/02/22-rdf-syntax-ns#"
   xmlns:svg="http://www.w3.org/2000/svg"
   xmlns="http://www.w3.org/2000/svg"
   xmlns:sodipodi="http://sodipodi.sourceforge.net/DTD/sodipodi-0.dtd"
   xmlns:inkscape="http://www.inkscape.org/namespaces/inkscape"
   inkscape:version="1.0 (4035a4fb49, 2020-05-01)"
   inkscape:export-ydpi="96"
   inkscape:export-xdpi="96"
   inkscape:export-filename="D:\Repositories\portfolio\webApp\static\images\one-cut\icon.png"
   sodipodi:docname="icon.svg"
   version="1.1"
   width="512"
   viewBox="0 0 512 512"
   height="512"
   enable-background="new 0 0 512 512"
   id="Capa_1">
  <metadata
     id="metadata31">
    <rdf:RDF>
      <cc:Work
         rdf:about="">
        <dc:format>image/svg+xml</dc:format>
        <dc:type
           rdf:resource="http://purl.org/dc/dcmitype/StillImage" />
      </cc:Work>
    </rdf:RDF>
  </metadata>
  <defs
     id="defs29" />
  <sodipodi:namedview
     inkscape:current-layer="Capa_1"
     inkscape:window-maximized="0"
     inkscape:window-y="0"
     inkscape:window-x="0"
     inkscape:cy="256"
     inkscape:cx="256"
     inkscape:zoom="1.96875"
     showgrid="false"
     id="namedview27"
     inkscape:window-height="480"
     inkscape:window-width="776"
     inkscape:pageshadow="2"
     inkscape:pageopacity="0"
     guidetolerance="10"
     gridtolerance="10"
     objecttolerance="10"
     borderopacity="1"
     bordercolor="#666666"
     pagecolor="#ffffff" />
  <g
     id="g24">
    <path
       id="path2"
       fill="#d82e3d"
       d="m185.761 210.825-16.307-126.813c1.323-.22 2.753.208 3.739 1.375l41.1 48.685z" />
    <path
       id="path4"
       fill="#c32430"
       d="m134.679 300.49-30.421-54.574 62.103-159.393c.555-1.423 1.77-2.291 3.092-2.511l16.307 98.057z" />
    <path
       id="path6"
       fill="#dd636e"
       d="m451.406 141.668c1.51.457 2.942 1.165 4.224 2.118l54.816 40.79c2.964 2.206 1.404 6.915-2.291 6.915h-71.379l-7.614-24.911z" />
    <path
       id="path8"
       fill="#e28086"
       d="m368.049 425.554-28.114-69.075 14.79-97.691 55.067-114.743c.873-1.819 2.712-2.976 4.729-2.976h32.906c1.358 0 2.696.21 3.979.599z" />
    <path
       id="path10"
       fill="#da4a54"
       d="m137.569 263.139 106.409-179.005c.781-1.313 2.121-1.97 3.462-1.97l16.286 296.588z" />
    <path
       id="path12"
       fill="#d82e3d"
       d="m3.413 127.867 132.374 154.957 26.18 79.38-35.137 63.35-126.659-295.673c-.871-2.033 1.805-3.696 3.242-2.014z" />
    <path
       id="path14"
       fill="#da4a54"
       d="m247.44 405.448c-.278 0-.557.029-.83.087l-114.928 24.213c-2.605.549-5.017-1.536-4.85-4.194l5.106-81.378c30.031 8.99 138.23 6.543 138.23 6.543z" />
    <path
       id="path16"
       fill="#e28086"
       d="m137.455 263.331.114-.192 109.871 87.579 8.56 11.485-8.56 16.549s-85.471-25.587-115.502-34.577l4.96-79.038c.039-.637.23-1.257.557-1.806z" />
    <path
       id="path18"
       fill="#d82e3d"
       d="m362.942 344.176 5.106 81.378c.167 2.657-2.245 4.743-4.85 4.194l-114.928-24.214c-.274-.058-.552-.087-.83-.087v-54.729z" />
    <path
       id="path20"
       fill="#dd636e"
       d="m247.44 326.318 109.871-63.179.114.192c.326.549.518 1.168.558 1.806l4.96 79.038-115.503 34.577z" />
    <path
       id="path22"
       fill="#d82e3d"
       d="m247.44 82.165c1.341 0 2.682.657 3.462 1.97l106.409 179.005-109.871 87.578z" />
  </g>
</svg>
