<?xml version="1.0" encoding="UTF-8" standalone="no"?>
<svg
   xmlns:dc="http://purl.org/dc/elements/1.1/"
   xmlns:cc="http://creativecommons.org/ns#"
   xmlns:rdf="http://www.w3.org/1999/02/22-rdf-syntax-ns#"
   xmlns:svg="http://www.w3.org/2000/svg"
   xmlns="http://www.w3.org/2000/svg"
   xmlns:sodipodi="http://sodipodi.sourceforge.net/DTD/sodipodi-0.dtd"
   xmlns:inkscape="http://www.inkscape.org/namespaces/inkscape"
   inkscape:version="1.0 (4035a4fb49, 2020-05-01)"
   inkscape:export-ydpi="96"
   inkscape:export-xdpi="96"
   inkscape:export-filename="D:\Repositories\portfolio\webApp\static\images\8bit-logic-unit\icon.png"
   sodipodi:docname="icon.svg"
   version="1.1"
   width="512"
   viewBox="0 0 512 512"
   height="512"
   enable-background="new 0 0 512 512"
   id="Capa_1">
  <metadata
     id="metadata43">
    <rdf:RDF>
      <cc:Work
         rdf:about="">
        <dc:format>image/svg+xml</dc:format>
        <dc:type
           rdf:resource="http://purl.org/dc/dcmitype/StillImage" />
        <dc:title></dc:title>
      </cc:Work>
    </rdf:RDF>
  </metadata>
  <defs
     id="defs41" />
  <sodipodi:namedview
     inkscape:current-layer="Capa_1"
     inkscape:window-maximized="0"
     inkscape:window-y="0"
     inkscape:window-x="0"
     inkscape:cy="367.90427"
     inkscape:cx="-62.063947"
     inkscape:zoom="0.984375"
     showgrid="false"
     id="namedview39"
     inkscape:window-height="1342"
     inkscape:window-width="1813"
     inkscape:pageshadow="2"
     inkscape:pageopacity="0"
     guidetolerance="10"
     gridtolerance="10"
     objecttolerance="10"
     borderopacity="1"
     bordercolor="#666666"
     pagecolor="#ffffff" />
  <g
     id="g36">
    <path
       id="path2"
       fill="#90e36a"
       d="m512 15c0-8.291-6.709-15-15-15h-46l-15 30-15-30h-90l-15 30-15-30h-45-165l-15 30-15-30h-46c-8.291 0-15 6.709-15 15v166l30 15-30 15v286c0 8.291 6.709 15 15 15h166l15-30 15 30h30l15-30 15 30h150l15-30 15 30h46c8.291 0 15-6.709 15-15v-166l-30-15 30-15z" />
    <path
       id="path4"
       fill="#00aa63"
       d="m421 512 15-30 15 30h46c8.291 0 15-6.709 15-15v-166l-30-15 30-15v-286c0-8.291-6.709-15-15-15h-46l-15 30-15-30h-90l-15 30-15-30h-45v482l15 30z" />
    <path
       id="path6"
       fill="#f0f7ff"
       d="m76 181h-76v30h76c8.291 0 15-6.709 15-15s-6.709-15-15-15z" />
    <path
       id="path8"
       fill="#f0f7ff"
       d="m136 421h45v91h30v-106c0-8.291-6.709-15-15-15h-60c-8.291 0-15 6.709-15 15s6.709 15 15 15z" />
    <g
       id="g18"
       fill="#dfe7f4">
      <path
         id="path10"
         d="m451 512v-136c0-8.291-6.709-15-15-15s-15 6.709-15 15v136z" />
      <path
         id="path12"
         d="m512 301h-166c-8.291 0-15 6.709-15 15v60c0 8.291 6.709 15 15 15s15-6.709 15-15v-45h151z" />
      <path
         id="path14"
         d="m421 0v61h-45c-8.291 0-15 6.709-15 15s6.709 15 15 15h45v120h-105c-8.291 0-15 6.709-15 15s6.709 15 15 15h120c8.291 0 15-6.709 15-15v-226z" />
      <path
         id="path16"
         d="m376 121h-45v-121h-30v136c0 8.291 6.709 15 15 15h60c8.291 0 15-6.709 15-15s-6.709-15-15-15z" />
    </g>
    <path
       id="path20"
       fill="#f0f7ff"
       d="m196 91h-105v-91h-30v106c0 8.291 6.709 15 15 15h120c8.291 0 15-6.709 15-15s-6.709-15-15-15z" />
    <path
       id="path22"
       fill="#f0f7ff"
       d="m256 301h-45v-105c0-8.291-6.709-15-15-15s-15 6.709-15 15v105h-60v-75c0-8.291-6.709-15-15-15s-15 6.709-15 15v90c0 8.291 6.709 15 15 15h135v181h15 15v-196c0-8.291-6.709-15-15-15z" />
    <path
       id="path24"
       fill="#dfe7f4"
       d="m271 316c0-8.291-6.709-15-15-15v211h15z" />
    <path
       id="path26"
       fill="#f0f7ff"
       d="m226 151c-24.814 0-45-20.186-45-45s20.186-45 45-45 45 20.186 45 45-20.186 45-45 45z" />
    <path
       id="path28"
       fill="#f0f7ff"
       d="m106 241c-24.814 0-45-20.186-45-45s20.186-45 45-45 45 20.186 45 45-20.186 45-45 45z" />
    <path
       id="path30"
       fill="#dfe7f4"
       d="m286 271c-24.814 0-45-20.186-45-45s20.186-45 45-45 45 20.186 45 45-20.186 45-45 45z" />
    <path
       id="path32"
       fill="#dfe7f4"
       d="m346 451c-24.814 0-45-20.186-45-45s20.186-45 45-45 45 20.186 45 45-20.186 45-45 45z" />
    <path
       id="path34"
       fill="#f0f7ff"
       d="m106 451c-24.814 0-45-20.186-45-45s20.186-45 45-45 45 20.186 45 45-20.186 45-45 45z" />
  </g>
</svg>
