<svg id="Capa_1" enable-background="new 0 0 512 512" height="512" viewBox="0 0 512 512" width="512" xmlns="http://www.w3.org/2000/svg"><path d="m297.025 487.197c-4.032 0-7.395-3.166-7.597-7.236-.207-4.199 3.029-7.77 7.227-7.978 49.172-2.428 93.951-9.304 126.09-19.364 33.957-10.628 46.056-22.386 46.056-29.844 0-20.961-80.957-50.199-212.802-50.199-13.57 0-27.15.328-40.36.976-4.18.19-7.768-3.03-7.975-7.23-.205-4.198 3.032-7.769 7.23-7.975 13.458-.659 27.287-.994 41.105-.994 59.508 0 115.544 6.102 157.787 17.181 45.95 12.052 70.238 28.733 70.238 48.241 0 17.661-19.087 32.59-56.732 44.373-33.335 10.433-79.462 17.55-129.886 20.041-.127.005-.255.008-.381.008z" fill="#0acefa"/><path d="m55.071 406.592c-2.625 0-5.179-1.36-6.592-3.794-2.109-3.636-.87-8.294 2.766-10.403 16.438-9.533 41.902-17.779 73.638-23.845 4.125-.787 8.116 1.917 8.905 6.047.79 4.129-1.918 8.116-6.047 8.905-30.073 5.749-53.885 13.379-68.859 22.063-1.201.696-2.514 1.027-3.811 1.027z" fill="#0acefa"/><path d="m50.957 403.752c-1.291 0-2.6-.329-3.799-1.021-3.64-2.102-4.888-6.757-2.786-10.397l205.036-355.133c2.1-3.641 6.755-4.887 10.397-2.786 3.64 2.102 4.888 6.757 2.786 10.397l-205.035 355.133c-1.409 2.443-3.968 3.807-6.599 3.807z" fill="#8f818f"/><path d="m498.046 41.007h-484.092c-5.605 0-10.149-4.544-10.149-10.149v-20.71c.001-5.604 4.544-10.148 10.149-10.148h484.091c5.605 0 10.149 4.544 10.149 10.149v20.71c0 5.604-4.543 10.148-10.148 10.148z" fill="#da8659"/><path d="m491.791 0v14.353c0 5.662-4.59 10.252-10.252 10.252h-477.733v6.254c0 5.605 4.544 10.149 10.149 10.149h484.091c5.605 0 10.149-4.544 10.149-10.149v-20.71c-.001-5.605-4.544-10.149-10.149-10.149z" fill="#c56e37"/><g fill="#e5ecf1"><path d="m72.431 430.387h-6.089c-4.204 0-7.611-3.407-7.611-7.612s3.407-7.612 7.611-7.612h6.089c4.204 0 7.611 3.407 7.611 7.612s-3.407 7.612-7.611 7.612z"/><path d="m223.987 430.387h-11.965c-4.204 0-7.611-3.407-7.611-7.612s3.407-7.612 7.611-7.612h11.965c4.204 0 7.611 3.407 7.611 7.612s-3.407 7.612-7.611 7.612zm-37.889 0h-11.965c-4.204 0-7.611-3.407-7.611-7.612s3.407-7.612 7.611-7.612h11.965c4.204 0 7.611 3.407 7.611 7.612s-3.407 7.612-7.611 7.612zm-37.889 0h-11.965c-4.204 0-7.611-3.407-7.611-7.612s3.407-7.612 7.611-7.612h11.965c4.204 0 7.611 3.407 7.611 7.612s-3.407 7.612-7.611 7.612zm-37.889 0h-11.965c-4.204 0-7.611-3.407-7.611-7.612s3.407-7.612 7.611-7.612h11.965c4.204 0 7.611 3.407 7.611 7.612s-3.407 7.612-7.611 7.612z"/><path d="m256 430.387h-6.089c-4.204 0-7.611-3.407-7.611-7.612 0-3.727 2.679-6.829 6.217-7.484.655-3.538 3.756-6.217 7.484-6.217 4.204 0 7.612 3.407 7.612 7.611v6.089c-.001 4.205-3.409 7.613-7.613 7.613z"/><path d="m256 398.184c-4.204 0-7.611-3.407-7.611-7.611v-12.052c0-4.204 3.407-7.611 7.611-7.611s7.612 3.407 7.612 7.611v12.052c0 4.204-3.408 7.611-7.612 7.611zm0-38.164c-4.204 0-7.611-3.407-7.611-7.612v-12.052c0-4.204 3.407-7.611 7.611-7.611s7.612 3.407 7.612 7.611v12.052c0 4.204-3.408 7.612-7.612 7.612zm0-38.164c-4.204 0-7.611-3.407-7.611-7.611v-12.052c0-4.204 3.407-7.612 7.611-7.612s7.612 3.407 7.612 7.612v12.052c0 4.204-3.408 7.611-7.612 7.611zm0-38.164c-4.204 0-7.611-3.407-7.611-7.611v-12.052c0-4.204 3.407-7.612 7.611-7.612s7.612 3.407 7.612 7.612v12.052c0 4.203-3.408 7.611-7.612 7.611zm0-38.164c-4.204 0-7.611-3.407-7.611-7.611v-12.053c0-4.204 3.407-7.611 7.611-7.611s7.612 3.407 7.612 7.611v12.053c0 4.204-3.408 7.611-7.612 7.611zm0-38.164c-4.204 0-7.611-3.407-7.611-7.611v-12.052c0-4.204 3.407-7.611 7.611-7.611s7.612 3.407 7.612 7.611v12.052c0 4.203-3.408 7.611-7.612 7.611zm0-38.165c-4.204 0-7.611-3.407-7.611-7.611v-12.052c0-4.204 3.407-7.611 7.611-7.611s7.612 3.407 7.612 7.611v12.052c0 4.204-3.408 7.611-7.612 7.611zm0-38.163c-4.204 0-7.611-3.407-7.611-7.611v-12.052c0-4.204 3.407-7.611 7.611-7.611s7.612 3.407 7.612 7.611v12.052c0 4.203-3.408 7.611-7.612 7.611zm0-38.165c-4.204 0-7.611-3.407-7.611-7.611v-12.052c0-4.204 3.407-7.611 7.611-7.611s7.612 3.407 7.612 7.611v12.052c0 4.204-3.408 7.611-7.612 7.611z"/><path d="m256 54.708c-4.204 0-7.611-3.407-7.611-7.611v-6.089c0-4.204 3.407-7.611 7.611-7.611s7.612 3.407 7.612 7.611v6.089c0 4.203-3.408 7.611-7.612 7.611z"/></g><circle cx="35.586" cy="422.775" fill="#fc8086" r="30.755"/><path d="m47.898 394.59c1.645 3.768 2.562 7.927 2.56 12.301-.007 16.986-13.783 30.75-30.768 30.742-4.374-.002-8.532-.923-12.299-2.57 4.742 10.864 15.571 18.462 28.182 18.467 16.986.007 30.761-13.757 30.768-30.742.006-12.612-7.583-23.447-18.443-28.198z" fill="#fa4954"/><path d="m262.407 475.427c-.003-.003-.007-.006-.01-.009l-23.569-23.57c-2.972-2.972-7.792-2.973-10.764-.001-2.973 2.972-2.973 7.792-.001 10.764l10.181 10.182c-121.318-2.476-195.046-30.015-195.046-50.018 0-4.204-3.407-7.612-7.611-7.612s-7.611 3.407-7.611 7.612c0 19.507 24.287 36.188 70.238 48.241 38.205 10.02 87.693 15.968 140.826 17.014l-10.976 10.976c-2.972 2.973-2.972 7.792 0 10.765 1.487 1.486 3.435 2.229 5.383 2.229 1.947 0 3.896-.743 5.383-2.229l23.579-23.579c2.971-2.973 2.971-7.792-.002-10.765z" fill="#97e4f9"/><path d="m307.388 202.289h-12.892v-23.145c0-4.204-3.407-7.611-7.612-7.611s-7.611 3.407-7.611 7.611v61.511c0 4.204 3.407 7.611 7.611 7.611s7.612-3.407 7.612-7.611v-23.144h12.892c1.456 0 2.64 1.184 2.64 2.64v20.503c0 4.204 3.407 7.611 7.612 7.611s7.611-3.407 7.611-7.611v-20.503c0-9.848-8.014-17.862-17.863-17.862z" fill="#8f818f"/><path d="m177.574 337.874h-8.935c-.682-3.504-3.764-6.151-7.468-6.151-4.204 0-7.611 3.407-7.611 7.612v51.259c0 4.204 3.407 7.611 7.611 7.611s7.611-3.407 7.611-7.611v-37.497h8.792c3.718 0 6.741 3.024 6.741 6.741 0 4.204 3.407 7.612 7.611 7.612s7.611-3.407 7.611-7.612c.001-12.111-9.852-21.964-21.963-21.964z" fill="#8f818f"/></svg>