<?xml version="1.0" encoding="UTF-8" standalone="no"?>
<svg
   xmlns:dc="http://purl.org/dc/elements/1.1/"
   xmlns:cc="http://creativecommons.org/ns#"
   xmlns:rdf="http://www.w3.org/1999/02/22-rdf-syntax-ns#"
   xmlns:svg="http://www.w3.org/2000/svg"
   xmlns="http://www.w3.org/2000/svg"
   xmlns:sodipodi="http://sodipodi.sourceforge.net/DTD/sodipodi-0.dtd"
   xmlns:inkscape="http://www.inkscape.org/namespaces/inkscape"
   inkscape:export-ydpi="96"
   inkscape:export-xdpi="96"
   inkscape:export-filename="D:\Repositories\portfolio\rawImages\favorIcon.png"
   inkscape:version="1.0 (4035a4fb49, 2020-05-01)"
   sodipodi:docname="favorIcon.svg"
   id="svg14"
   version="1.1"
   width="512"
   viewBox="0 0 100 100"
   height="512"
   enable-background="new 0 0 100 100">
  <metadata
     id="metadata20">
    <rdf:RDF>
      <cc:Work
         rdf:about="">
        <dc:format>image/svg+xml</dc:format>
        <dc:type
           rdf:resource="http://purl.org/dc/dcmitype/StillImage" />
        <dc:title></dc:title>
      </cc:Work>
    </rdf:RDF>
  </metadata>
  <defs
     id="defs18" />
  <sodipodi:namedview
     inkscape:current-layer="svg14"
     inkscape:window-maximized="0"
     inkscape:window-y="0"
     inkscape:window-x="-7"
     inkscape:cy="368.28189"
     inkscape:cx="225.88963"
     inkscape:zoom="0.984375"
     inkscape:snap-nodes="false"
     inkscape:bbox-nodes="true"
     inkscape:snap-bbox-edge-midpoints="false"
     inkscape:snap-bbox="true"
     showgrid="true"
     id="namedview16"
     inkscape:window-height="1368"
     inkscape:window-width="1278"
     inkscape:pageshadow="2"
     inkscape:pageopacity="0"
     guidetolerance="10"
     gridtolerance="10"
     objecttolerance="10"
     borderopacity="1"
     bordercolor="#666666"
     pagecolor="#ffffff">
    <inkscape:grid
       originy="0"
       originx="0"
       id="grid845"
       type="xygrid" />
  </sodipodi:namedview>
  <path
     style="stroke-width:1.11111"
     id="path2"
     fill="#19282f"
     d="M 51.489886,94.923002 38.566111,85.876354 c 0,0 -0.51695,-16.025475 4.135611,-19.644131 4.652557,-3.618659 4.911033,-16.025483 4.135606,-20.67804 0,0 -2.41695,-6.856075 -9.713953,-5.561444 -7.297,1.294628 -6.590839,9.533179 -6.473147,13.887842 0.117693,4.354664 -5.296211,12.710902 -9.062404,15.18247 0,0 1.176936,-10.156716 -4.119275,-16.37694 C 12.172338,46.465887 9.4653842,28.929542 14.526209,18.925587 19.587033,8.9216329 31.474084,-1.082322 53.835867,0.0946138 76.19765,1.2715496 83.847726,12.570133 84.553895,17.395571 c 0.70616,4.825436 -4.236976,9.415486 -4.236976,9.415486 0,0 -6.120063,-4.119275 -11.416279,-3.88389 0,0 0.706169,9.88626 -12.004742,15.300168 L 55.836659,51.99748 71.372208,68.474587 c 0,0 5.884679,-5.5316 8.944711,-5.5316 3.06004,0 6.237759,2.942335 6.237759,5.17852 0,2.236175 0.470775,4.236966 -2.236176,6.943919 0,0 -0.823855,-3.060033 -1.647712,-2.236176 -0.823855,0.823847 -2.236175,2.824639 -0.823855,6.708527 1.412327,3.883895 2.471567,11.180894 -1.176936,17.771733 -3.648495,6.59084 -16.712485,-0.823856 -20.949453,-2.236176 -4.236973,-1.412326 -8.23066,-0.150332 -8.23066,-0.150332 z" />
  <path
     style="stroke-width:7.16796875;stroke-miterlimit:4;stroke-dasharray:none;stroke:none;stroke-opacity:1"
     id="path4"
     fill="#19282f"
     d="m 88.124017,57.468071 c -0.07755,-0.509516 -0.22271,-0.976469 -0.389405,-1.430422 -0.152232,-0.463384 -0.351681,-0.896942 -0.531124,-1.343757 -0.76383,-1.757444 -1.671473,-3.431024 -2.587983,-5.096707 -0.825324,-1.471968 -1.689768,-2.916408 -2.574735,-4.354218 0.757209,-0.219206 1.481086,-0.512577 2.172267,-0.980292 0.427703,-0.30357 0.863681,-0.707821 1.077405,-1.300685 0.06289,-0.143246 0.08692,-0.297962 0.100367,-0.456246 0.02817,-0.164914 0.0089,-0.296436 -0.0058,-0.43076 -0.02058,-0.281901 -0.07162,-0.520986 -0.120942,-0.759307 -0.194246,-0.961685 -0.440022,-1.884117 -0.684588,-2.813178 -0.245709,-0.926764 -0.508812,-1.84767 -0.778231,-2.76577 -0.533092,-1.83824 -1.103143,-3.664242 -1.68435,-5.486171 -0.604528,-1.815297 -1.184904,-3.637224 -1.833649,-5.437741 0.442411,1.861944 0.93377,3.70885 1.386388,5.566208 l 1.41627,5.551927 c 0.446947,1.849967 0.956082,3.707067 1.29336,5.547854 0.0838,0.471539 0.161091,0.888023 0.04608,1.176554 -0.110945,0.313255 -0.396669,0.607139 -0.744146,0.845715 -0.70087,0.475615 -1.60948,0.786323 -2.469846,0.980292 l -0.669581,0.150892 0.361302,0.569925 c 1.008072,1.589724 1.984033,3.211055 2.931951,4.840541 0.954234,1.62643 1.869845,3.277075 2.695101,4.95856 0.390938,0.840869 0.788624,1.711049 0.980105,2.562879 0.09692,0.39533 0.06072,0.887514 0.02319,1.326937 -0.04499,0.449618 -0.165481,0.882416 -0.347731,1.288703 -0.357158,0.822775 -1.044074,1.483438 -1.805098,2.018954 -0.765108,0.538576 -1.605597,0.981822 -2.453917,1.402893 0.889035,-0.327784 1.770502,-0.693033 2.59123,-1.19261 0.816464,-0.488875 1.608267,-1.127616 2.083765,-2.023286 0.235892,-0.441466 0.392965,-0.927789 0.470514,-1.417168 0.06633,-0.497539 0.137575,-0.960668 0.05181,-1.500516 z" />
  <path
     style="stroke-width:1.11111"
     id="path6"
     opacity="0.25"
     fill="#467082"
     d="m 33.138517,10.69551 c -4.951572,2.069754 -9.587946,5.094353 -12.968247,9.262747 -3.380301,4.168395 -5.419579,9.550545 -4.989099,14.899993 1.572688,-3.942467 4.080294,-7.508419 7.258453,-10.321909 -3.832335,7.578566 -4.074531,16.879166 -0.641829,24.64692 -0.981401,-6.154344 1.271115,-12.733184 5.818702,-16.994472 -0.165545,6.17257 -0.33109,12.34514 -0.496635,18.517706 -0.969993,-4.201092 -1.099983,-8.719452 0.487788,-12.728077 1.58777,-4.008623 5.111267,-7.400804 9.374031,-8.048046 4.262767,-0.647238 9.007195,1.99266 10.030246,6.181151 1.504902,-3.084488 3.009805,-6.168978 4.514707,-9.253466 0.151952,2.435818 0.303908,4.871633 0.45586,7.307453 1.825761,-5.701855 5.77992,-10.694741 10.911819,-13.778271 C 68.0754,17.274154 73.870214,16.480836 79.791692,17.11617 72.838076,13.779946 66.698575,9.6904707 58.905678,8.1990652 50.315692,6.5551141 41.228711,7.3138107 33.138517,10.69551 Z" />
  <path
     style="stroke-width:1.11111"
     id="path8"
     opacity="0.25"
     fill="#19282f"
     d="m 27.047825,20.680662 c 9.554933,-6.730826 21.803511,-9.516056 33.329483,-7.578859 -5.469628,1.539824 -9.890654,6.321109 -10.998166,11.894374 -1.209111,-1.209763 -1.528549,-3.216139 -0.75492,-4.74158 -2.228844,2.217957 -4.739427,4.152485 -7.452257,5.742332 -1.671008,-1.337578 -4.037243,-1.524516 -6.11335,-1.003791 -2.076107,0.520726 -3.934813,1.660273 -5.756571,2.783914 -0.362737,0.223732 -0.725474,0.447463 -1.08821,0.671195 -0.257876,0.159055 -0.515749,0.318108 -0.773624,0.477161 -1.288296,0.794607 -2.576591,1.589212 -3.864886,2.383818 0.769123,-1.61128 1.542115,-3.229383 2.540823,-4.709367 2.913535,-4.317565 7.776286,-7.263182 12.952245,-7.845841 -5.306816,-0.881864 -11.004859,1.126699 -14.585621,5.141439 0.698074,-2.319758 2.411761,-4.314054 4.600043,-5.353285" />
  <path
     style="stroke-width:1.11111"
     id="path10"
     opacity="0.25"
     fill="#467082"
     d="m 78.95067,75.81103 c 0.386955,4.308844 0.773918,8.617698 1.160872,12.926542 0.111779,1.244711 0.219608,2.528755 -0.160455,3.719279 -0.380071,1.190517 -1.377503,2.275611 -2.624495,2.358077 -1.583116,0.104689 -2.780617,-1.311714 -3.920254,-2.415551 -4.572118,-4.428533 -12.427809,-4.909134 -17.505679,-1.07098 1.650411,-3.24195 5.399356,-5.282678 9.017974,-4.908923 -3.867803,-2.181354 -9.016931,-1.833233 -12.555924,0.84888 1.09609,-1.886647 2.192184,-3.773294 3.288278,-5.659942 -1.645559,1.545716 -3.291122,3.091439 -4.93668,4.637162 0.575485,-2.486843 1.150975,-4.973686 1.72646,-7.46053 -2.764783,0.98348 -4.985754,3.376296 -5.760845,6.20658 -1.572326,-4.247995 -1.051399,-9.215875 1.367915,-13.045306 -2.192069,2.338528 -3.424241,5.551334 -3.358064,8.755934 -1.721336,-2.061971 -1.658627,-5.124071 -0.784358,-7.663837 0.87427,-2.539766 2.432798,-4.784469 3.516189,-7.242322 2.04208,-4.632793 2.32316,-9.836946 2.251452,-14.899334 1.32926,3.319758 2.658521,6.639515 3.987778,9.959272 0.03896,-1.751157 0.07791,-3.502316 0.11687,-5.253474 2.994249,5.610059 5.296249,11.589156 6.83726,17.758725 0.495092,-2.468685 0.990184,-4.937362 1.485277,-7.406047 1.144164,1.965585 2.288323,3.931172 3.432486,5.896758 0.366134,-0.596551 0.732278,-1.193093 1.098412,-1.789644 1.337688,2.212788 2.675375,4.425583 4.013062,6.63837 0.811564,-6.355209 7.135535,-11.486714 13.521644,-10.971959 0.657627,0.313848 0.589472,1.347402 0.0781,1.866515 -0.511383,0.519112 -1.263801,0.694656 -1.941843,0.961566 -3.760351,1.480264 -5.367754,6.771969 -3.066042,10.093638" />
  <path
     style="stroke-width:1.11111"
     id="path12"
     fill="#19282f"
     d="m 51.099519,76.075592 c 1.962128,-1.440463 3.527459,-3.415892 4.481281,-5.655331 -0.03728,2.158279 -0.07457,4.316559 -0.111846,6.474838 -0.0062,0.359523 0.0018,0.75815 0.246535,1.021533 0.32196,0.346409 0.876308,0.286239 1.341113,0.19895 2.294871,-0.430976 4.589745,-0.861961 6.884621,-1.292936 -0.408355,1.540383 -0.81671,3.080757 -1.225065,4.621132 2.796207,-1.814592 6.781777,-1.534026 9.296188,0.654415 1.825366,1.588737 2.796266,3.917695 3.706631,6.159847 -1.055153,-4.032101 -1.426926,-8.242137 -1.094725,-12.396758 0.140594,1.071142 -0.486755,2.198461 -1.471133,2.64356 -1.004071,0.454008 -2.214415,0.201492 -3.152703,-0.376341 -0.938289,-0.577842 -1.659953,-1.44082 -2.364155,-2.288394 -0.338592,0.960625 -0.677185,1.921251 -1.015786,2.881876 -0.267698,-1.579293 -0.535397,-3.158586 -0.803096,-4.73788 -1.512976,0.560295 -3.025953,1.120589 -4.53893,1.680884 -1.138886,0.421761 -2.523146,0.810843 -3.476227,0.05812 -0.653594,-0.516189 -0.860884,-1.401994 -1.026904,-2.21812 -0.396096,-1.947149 -0.79219,-3.894289 -1.188286,-5.841438 -0.680326,0.780225 -1.360653,1.560449 -2.040978,2.340682 -0.260934,0 -1.352369,-3.104774 -1.607331,-3.441035 -0.599569,1.163822 -0.371573,3.28882 -0.471399,4.617403 -0.122605,1.631665 -0.245205,3.263321 -0.367805,4.894986 z" />
</svg>
