<?xml version="1.0" encoding="UTF-8" standalone="no"?>
<svg
   xmlns:dc="http://purl.org/dc/elements/1.1/"
   xmlns:cc="http://creativecommons.org/ns#"
   xmlns:rdf="http://www.w3.org/1999/02/22-rdf-syntax-ns#"
   xmlns:svg="http://www.w3.org/2000/svg"
   xmlns="http://www.w3.org/2000/svg"
   xmlns:sodipodi="http://sodipodi.sourceforge.net/DTD/sodipodi-0.dtd"
   xmlns:inkscape="http://www.inkscape.org/namespaces/inkscape"
   inkscape:version="1.0 (4035a4fb49, 2020-05-01)"
   inkscape:export-ydpi="75.540977"
   inkscape:export-xdpi="75.540977"
   inkscape:export-filename="D:\Repositories\portfolio\webApp\static\images\vapor-to-particle-reaction\icon.png"
   sodipodi:docname="icon.svg"
   id="svg84"
   version="1.1"
   width="488pt"
   viewBox="-4 0 488 488"
   height="488pt">
  <metadata
     id="metadata90">
    <rdf:RDF>
      <cc:Work
         rdf:about="">
        <dc:format>image/svg+xml</dc:format>
        <dc:type
           rdf:resource="http://purl.org/dc/dcmitype/StillImage" />
      </cc:Work>
    </rdf:RDF>
  </metadata>
  <defs
     id="defs88" />
  <sodipodi:namedview
     inkscape:current-layer="svg84"
     inkscape:window-maximized="0"
     inkscape:window-y="0"
     inkscape:window-x="0"
     inkscape:cy="325.33333"
     inkscape:cx="325.33333"
     inkscape:zoom="1.5491803"
     showgrid="false"
     id="namedview86"
     inkscape:window-height="480"
     inkscape:window-width="776"
     inkscape:pageshadow="2"
     inkscape:pageopacity="0"
     guidetolerance="10"
     gridtolerance="10"
     objecttolerance="10"
     borderopacity="1"
     bordercolor="#666666"
     pagecolor="#ffffff" />
  <path
     id="path2"
     fill="#bc8f6f"
     d="m112 184v-32h48v32" />
  <path
     id="path4"
     fill="#cb9e78"
     d="m112 184v-32h32v32" />
  <path
     id="path6"
     fill="#bc8f6f"
     d="m368 120h112v32h-112zm0 0" />
  <path
     id="path8"
     fill="#cb9e78"
     d="m368 120h72v32h-72zm0 0" />
  <path
     id="path10"
     fill="#bab8b9"
     d="m464 152h-80v296c0 22.089844 17.910156 40 40 40s40-17.910156 40-40zm0 0" />
  <path
     id="path12"
     fill="#d9d7d8"
     d="m412 485.96875c16.183594-5.121094 28-20.082031 28-37.96875v-296h-56v296c0 17.878906 11.816406 32.839844 28 37.96875zm0 0" />
  <path
     id="path14"
     fill="#d46b69"
     d="m424 488c22.089844 0 40-17.910156 40-40v-184h-80v184c0 22.089844 17.910156 40 40 40zm0 0" />
  <path
     id="path16"
     fill="#ed7775"
     d="m412 485.96875c16.183594-5.121094 28-20.082031 28-37.96875v-184h-56v184c0 17.878906 11.816406 32.839844 28 37.96875zm0 0" />
  <path
     id="path18"
     fill="#bab8b9"
     d="m240 488c17.671875 0 32-14.328125 32-32v-7.839844c0-5.351562-1.34375-10.625-3.902344-15.320312l-92.097656-168.839844v-80h-79.929688v80l-92.085937 168.839844c-2.558594 4.703125-3.90625 9.96875-3.90625 15.320312v7.839844c0 17.671875 14.328125 32 32 32zm0 0" />
  <path
     id="path20"
     fill="#d9d7d8"
     d="m248 456v-7.839844c0-5.351562-1.34375-10.625-3.902344-15.320312l-92.097656-168.839844v-80h-55.929688v80l-92.085937 168.839844c-2.558594 4.703125-3.90625 9.96875-3.90625 15.320312v7.839844c0 17.671875 14.328125 32 32 32h183.921875c17.671875 0 32-14.328125 32-32zm0 0" />
  <path
     id="path22"
     fill="#599072"
     d="m272 456v-7.839844c0-5.351562-1.34375-10.625-3.902344-15.320312l-57.1875-104.839844h-12.285156c-4.242188 0-8.3125 1.6875-11.3125 4.6875l-6.625 6.625c-3 3-7.070312 4.6875-11.3125 4.6875h-2.742188c-4.242187 0-8.3125-1.6875-11.3125-4.6875l-6.625-6.625c-3.007812-3-7.078124-4.6875-11.320312-4.6875h-2.742188c-4.242187 0-8.3125 1.6875-11.3125 4.6875l-6.625 6.625c-3.007812 3-7.078124 4.6875-11.320312 4.6875h-2.742188c-4.242187 0-8.3125-1.6875-11.3125-4.6875l-6.625-6.625c-3.007812-3-7.078124-4.6875-11.320312-4.6875h-12.207031l-57.183594 104.839844c-2.558594 4.703125-3.90625 9.96875-3.90625 15.320312v7.839844c0 17.671875 14.328125 32 32 32h207.921875c17.671875 0 32-14.328125 32-32zm0 0" />
  <path
     id="path24"
     fill="#bab8b9"
     d="m256 280v68.183594c-27.945312 9.894531-48 36.480468-48 67.816406 0 39.769531 32.230469 72 72 72s72-32.230469 72-72c0-31.335938-20.054688-57.921875-48-67.816406v-68.183594" />
  <path
     id="path26"
     fill="#d9d7d8"
     d="m208 416c0 37.054688 28.007812 67.542969 64 71.527344 35.992188-3.984375 64-34.472656 64-71.527344 0-31.335938-20.054688-57.921875-48-67.816406v-68.183594h-32v68.183594c-27.945312 9.894531-48 36.480468-48 67.816406zm0 0" />
  <path
     id="path28"
     fill="#85b6cf"
     d="m352 416c0-2.710938-.199219-5.367188-.496094-8h-8.878906c-4.242188 0-8.3125 1.6875-11.3125 4.6875l-6.625 6.625c-3 3-7.070312 4.6875-11.3125 4.6875h-2.742188c-4.242187 0-8.3125-1.6875-11.3125-4.6875l-6.625-6.625c-3.007812-3-7.078124-4.6875-11.320312-4.6875h-2.742188c-4.242187 0-8.3125 1.6875-11.3125 4.6875l-6.625 6.625c-3.007812 3-7.078124 4.6875-11.320312 4.6875h-2.742188c-4.242187 0-8.3125-1.6875-11.3125-4.6875l-6.625-6.625c-3.007812-3-7.078124-4.6875-11.320312-4.6875h-8.878906c-.296875 2.632812-.496094 5.289062-.496094 8 0 39.769531 32.230469 72 72 72s72-32.230469 72-72zm0 0" />
  <path
     id="path30"
     fill="#94cce7"
     d="m272 487.527344c35.992188-3.984375 64-34.472656 64-71.527344 0-2.136719-.191406-4.222656-.390625-6.304688-1.570313.769532-3.042969 1.738282-4.296875 2.992188l-6.625 6.625c-3 3-7.070312 4.6875-11.3125 4.6875h-2.742188c-2.3125 0-4.5625-.542969-6.625-1.488281-2.070312.945312-4.320312 1.488281-6.632812 1.488281h-2.742188c-4.242187 0-8.3125-1.6875-11.3125-4.6875l-6.625-6.625c-1.359374-1.359375-2.96875-2.414062-4.6875-3.199219-1.71875.785157-3.320312 1.839844-4.6875 3.199219l-6.625 6.625c-3.007812 3-7.078124 4.6875-11.320312 4.6875h-2.742188c-2.3125 0-4.5625-.542969-6.625-1.488281-2.070312.945312-4.320312 1.488281-6.632812 1.488281h-2.742188c-4.242187 0-8.3125-1.6875-11.3125-4.6875l-6.625-6.625c-1.253906-1.253906-2.726562-2.222656-4.296874-2.992188-.207032 2.082032-.398438 4.167969-.398438 6.304688 0 37.054688 28.007812 67.542969 64 71.527344zm0 0" />
  <path
     id="path32"
     fill="#70b48f"
     d="m128 424c0 8.835938-7.164062 16-16 16s-16-7.164062-16-16 7.164062-16 16-16 16 7.164062 16 16zm0 0" />
  <path
     id="path34"
     fill="#70b48f"
     d="m184 392c0 8.835938-7.164062 16-16 16s-16-7.164062-16-16 7.164062-16 16-16 16 7.164062 16 16zm0 0" />
  <path
     id="path36"
     fill="#70b48f"
     d="m64 440c0 8.835938-7.164062 16-16 16s-16-7.164062-16-16 7.164062-16 16-16 16 7.164062 16 16zm0 0" />
  <path
     id="path38"
     fill="#599072"
     d="m64 40c0 17.671875-14.328125 32-32 32s-32-14.328125-32-32 14.328125-32 32-32 32 14.328125 32 32zm0 0" />
  <path
     id="path40"
     fill="#85b6cf"
     d="m80 120c0 8.835938-7.164062 16-16 16s-16-7.164062-16-16 7.164062-16 16-16 16 7.164062 16 16zm0 0" />
  <path
     id="path42"
     fill="#cb9e78"
     d="m48 192c0 13.253906-10.746094 24-24 24s-24-10.746094-24-24 10.746094-24 24-24 24 10.746094 24 24zm0 0" />
  <path
     id="path44"
     d="m232 272h96v16h-96zm0 0" />
  <path
     id="path46"
     fill="#bc8f6f"
     d="m232 272h96v16h-96zm0 0" />
  <path
     id="path48"
     fill="#cb9e78"
     d="m232 272h72v16h-72zm0 0" />
  <path
     id="path50"
     fill="#bc8f6f"
     d="m256 304h48v16h-48zm0 0" />
  <path
     id="path52"
     fill="#cb9e78"
     d="m256 304h32v16h-32zm0 0" />
  <path
     id="path54"
     fill="#bc8f6f"
     d="m72 208h128v16h-128zm0 0" />
  <path
     id="path56"
     fill="#cb9e78"
     d="m72 208h80v16h-80zm0 0" />
  <path
     id="path58"
     fill="#70b48f"
     d="m176 448h16v16h-16zm0 0" />
  <path
     id="path60"
     fill="#70b48f"
     d="m160 432h16v16h-16zm0 0" />
  <path
     id="path62"
     fill="#70b48f"
     d="m144 448h16v16h-16zm0 0" />
  <path
     id="path64"
     fill="#70b48f"
     d="m80 376h16v16h-16zm0 0" />
  <g
     id="g76"
     fill="#d46b69">
    <path
       id="path66"
       d="m408 440h16v16h-16zm0 0" />
    <path
       id="path68"
       d="m424 408h16v16h-16zm0 0" />
    <path
       id="path70"
       d="m408 376h16v16h-16zm0 0" />
    <path
       id="path72"
       d="m424 344h16v16h-16zm0 0" />
    <path
       id="path74"
       d="m408 312h16v16h-16zm0 0" />
  </g>
  <path
     id="path78"
     fill="#ed7775"
     d="m168 128h-16v-104c0-13.230469 10.769531-24 24-24h272c13.230469 0 24 10.769531 24 24v72h-16v-72c0-4.40625-3.585938-8-8-8h-272c-4.414062 0-8 3.59375-8 8zm0 0" />
  <path
     id="path80"
     fill="#599072"
     d="m312 256h-16v-168c0-4.40625-3.585938-8-8-8h-160c-4.414062 0-8 3.59375-8 8v40h-16v-40c0-13.230469 10.769531-24 24-24h160c13.230469 0 24 10.769531 24 24zm0 0" />
  <path
     id="path82"
     fill="#94cce7"
     d="m264 256h-16v-200c0-13.230469 10.769531-24 24-24h96c13.230469 0 24 10.769531 24 24v40h-16v-40c0-4.40625-3.585938-8-8-8h-96c-4.414062 0-8 3.59375-8 8zm0 0" />
</svg>
