<?xml version="1.0" encoding="UTF-8" standalone="no"?>
<svg
   xmlns:dc="http://purl.org/dc/elements/1.1/"
   xmlns:cc="http://creativecommons.org/ns#"
   xmlns:rdf="http://www.w3.org/1999/02/22-rdf-syntax-ns#"
   xmlns:svg="http://www.w3.org/2000/svg"
   xmlns="http://www.w3.org/2000/svg"
   xmlns:sodipodi="http://sodipodi.sourceforge.net/DTD/sodipodi-0.dtd"
   xmlns:inkscape="http://www.inkscape.org/namespaces/inkscape"
   inkscape:version="1.0 (4035a4fb49, 2020-05-01)"
   inkscape:export-ydpi="96"
   inkscape:export-xdpi="96"
   inkscape:export-filename="D:\Repositories\portfolio\webApp\static\images\portfolio\icon.png"
   sodipodi:docname="icon.svg"
   id="svg74"
   version="1.1"
   width="512"
   viewBox="0 0 58 58"
   height="512"
   enable-background="new 0 0 58 58">
  <metadata
     id="metadata80">
    <rdf:RDF>
      <cc:Work
         rdf:about="">
        <dc:format>image/svg+xml</dc:format>
        <dc:type
           rdf:resource="http://purl.org/dc/dcmitype/StillImage" />
      </cc:Work>
    </rdf:RDF>
  </metadata>
  <defs
     id="defs78" />
  <sodipodi:namedview
     inkscape:current-layer="svg74"
     inkscape:window-maximized="0"
     inkscape:window-y="0"
     inkscape:window-x="0"
     inkscape:cy="256"
     inkscape:cx="256"
     inkscape:zoom="1.96875"
     showgrid="false"
     id="namedview76"
     inkscape:window-height="1145"
     inkscape:window-width="1812"
     inkscape:pageshadow="2"
     inkscape:pageopacity="0"
     guidetolerance="10"
     gridtolerance="10"
     objecttolerance="10"
     borderopacity="1"
     bordercolor="#666666"
     pagecolor="#ffffff" />
  <path
     id="path2"
     fill="#e7eced"
     d="m54.75 58h-51.5c-1.795 0-3.25-1.455-3.25-3.25v-43.75h58v43.75c0 1.795-1.455 3.25-3.25 3.25z" />
  <path
     id="path4"
     fill="#556080"
     d="m58 12h-58v-8.75c0-1.795 1.455-3.25 3.25-3.25h51.5c1.795 0 3.25 1.455 3.25 3.25z" />
  <path
     id="path6"
     fill="#dd352e"
     d="m4 4h4v4h-4z" />
  <path
     id="path8"
     fill="#ebba16"
     d="m12 4h4v4h-4z" />
  <path
     id="path10"
     fill="#23a24d"
     d="m20 4h4v4h-4z" />
  <path
     id="path12"
     fill="#366db6"
     d="m29 16c-3.866 0-7 3.134-7 7 0 2.439 1.249 4.584 3.14 5.837.317-.658 1.001-1.131 1.912-.897 1.405.361 2.693.528 4.121.271.676-.122 1.36.07 1.773.57 1.843-1.261 3.054-3.379 3.054-5.781 0-3.866-3.134-7-7-7z" />
  <path
     id="path14"
     fill="#fff"
     d="m31.93 22.347c-.245-1.154-1.205-2.083-2.366-2.295-1.904-.348-3.564 1.106-3.564 2.948 0 .822.334 1.563.872 2.104.163.164.137.441-.056.568-1.023.672-1.718 1.793-1.8 3.081 1.131.784 2.503 1.247 3.984 1.247s2.853-.463 3.984-1.248c-.081-1.288-.777-2.409-1.8-3.081-.194-.127-.219-.404-.055-.568.676-.68 1.03-1.678.801-2.756z" />
  <path
     id="path16"
     fill="#23a24d"
     d="m53 20h-1c-.552 0-1-.448-1-1s.448-1 1-1h1c.552 0 1 .448 1 1s-.448 1-1 1z" />
  <path
     id="path18"
     fill="#ebba16"
     d="m48 20h-8c-.552 0-1-.448-1-1s.448-1 1-1h8c.552 0 1 .448 1 1s-.448 1-1 1z" />
  <path
     id="path20"
     fill="#366db6"
     d="m53 28h-1c-.552 0-1-.448-1-1s.448-1 1-1h1c.552 0 1 .448 1 1s-.448 1-1 1z" />
  <path
     id="path22"
     fill="#cb465f"
     d="m48 28h-8c-.552 0-1-.448-1-1s.448-1 1-1h8c.552 0 1 .448 1 1s-.448 1-1 1z" />
  <path
     id="path24"
     fill="#dd352e"
     d="m41 24h-1c-.552 0-1-.448-1-1s.448-1 1-1h1c.552 0 1 .448 1 1s-.448 1-1 1z" />
  <path
     id="path26"
     fill="#7383bf"
     d="m53 24h-8c-.552 0-1-.448-1-1s.448-1 1-1h8c.552 0 1 .448 1 1s-.448 1-1 1z" />
  <path
     id="path28"
     d="m18 20h-1c-.552 0-1-.448-1-1s.448-1 1-1h1c.552 0 1 .448 1 1s-.448 1-1 1z" />
  <path
     id="path30"
     fill="#c5411e"
     d="m18 20h-1c-.552 0-1-.448-1-1s.448-1 1-1h1c.552 0 1 .448 1 1s-.448 1-1 1z" />
  <path
     id="path32"
     fill="#23a24d"
     d="m13 20h-8c-.552 0-1-.448-1-1s.448-1 1-1h8c.552 0 1 .448 1 1s-.448 1-1 1z" />
  <path
     id="path34"
     fill="#ebba16"
     d="m18 28h-1c-.552 0-1-.448-1-1s.448-1 1-1h1c.552 0 1 .448 1 1s-.448 1-1 1z" />
  <path
     id="path36"
     fill="#cb465f"
     d="m13 28h-8c-.552 0-1-.448-1-1s.448-1 1-1h8c.552 0 1 .448 1 1s-.448 1-1 1z" />
  <path
     id="path38"
     fill="#7383bf"
     d="m6 24h-1c-.552 0-1-.448-1-1s.448-1 1-1h1c.552 0 1 .448 1 1s-.448 1-1 1z" />
  <path
     id="path40"
     fill="#366db6"
     d="m18 24h-8c-.552 0-1-.448-1-1s.448-1 1-1h8c.552 0 1 .448 1 1s-.448 1-1 1z" />
  <path
     id="path42"
     fill="#23a24d"
     d="m5 34h12v20h-12z" />
  <path
     id="path44"
     fill="#dd352e"
     d="m41 34h12v20h-12z" />
  <path
     id="path46"
     fill="#ebba16"
     d="m23 34h12v20h-12z" />
  <g
     id="g72"
     fill="#fff">
    <path
       id="path48"
       d="m49 39h-4c-.552 0-1-.448-1-1s.448-1 1-1h4c.552 0 1 .448 1 1s-.448 1-1 1z" />
    <path
       id="path50"
       d="m49 43h-4c-.552 0-1-.448-1-1s.448-1 1-1h4c.552 0 1 .448 1 1s-.448 1-1 1z" />
    <path
       id="path52"
       d="m49 47h-4c-.552 0-1-.448-1-1s.448-1 1-1h4c.552 0 1 .448 1 1s-.448 1-1 1z" />
    <path
       id="path54"
       d="m49 51h-4c-.552 0-1-.448-1-1s.448-1 1-1h4c.552 0 1 .448 1 1s-.448 1-1 1z" />
    <path
       id="path56"
       d="m31 39h-4c-.552 0-1-.448-1-1s.448-1 1-1h4c.552 0 1 .448 1 1s-.448 1-1 1z" />
    <path
       id="path58"
       d="m31 43h-4c-.552 0-1-.448-1-1s.448-1 1-1h4c.552 0 1 .448 1 1s-.448 1-1 1z" />
    <path
       id="path60"
       d="m31 47h-4c-.552 0-1-.448-1-1s.448-1 1-1h4c.552 0 1 .448 1 1s-.448 1-1 1z" />
    <path
       id="path62"
       d="m31 51h-4c-.552 0-1-.448-1-1s.448-1 1-1h4c.552 0 1 .448 1 1s-.448 1-1 1z" />
    <path
       id="path64"
       d="m13 39h-4c-.552 0-1-.448-1-1s.448-1 1-1h4c.552 0 1 .448 1 1s-.448 1-1 1z" />
    <path
       id="path66"
       d="m13 43h-4c-.552 0-1-.448-1-1s.448-1 1-1h4c.552 0 1 .448 1 1s-.448 1-1 1z" />
    <path
       id="path68"
       d="m13 47h-4c-.552 0-1-.448-1-1s.448-1 1-1h4c.552 0 1 .448 1 1s-.448 1-1 1z" />
    <path
       id="path70"
       d="m13 51h-4c-.552 0-1-.448-1-1s.448-1 1-1h4c.552 0 1 .448 1 1s-.448 1-1 1z" />
  </g>
</svg>
