<?xml version="1.0" encoding="UTF-8" standalone="no"?>
<svg
   xmlns:dc="http://purl.org/dc/elements/1.1/"
   xmlns:cc="http://creativecommons.org/ns#"
   xmlns:rdf="http://www.w3.org/1999/02/22-rdf-syntax-ns#"
   xmlns:svg="http://www.w3.org/2000/svg"
   xmlns="http://www.w3.org/2000/svg"
   xmlns:sodipodi="http://sodipodi.sourceforge.net/DTD/sodipodi-0.dtd"
   xmlns:inkscape="http://www.inkscape.org/namespaces/inkscape"
   inkscape:version="1.0 (4035a4fb49, 2020-05-01)"
   sodipodi:docname="icon.svg"
   version="1.1"
   width="512"
   viewBox="0 0 64 64"
   height="512"
   enable-background="new 0 0 64 64"
   id="_x33_0">
  <metadata
     id="metadata13">
    <rdf:RDF>
      <cc:Work
         rdf:about="">
        <dc:format>image/svg+xml</dc:format>
        <dc:type
           rdf:resource="http://purl.org/dc/dcmitype/StillImage" />
      </cc:Work>
    </rdf:RDF>
  </metadata>
  <defs
     id="defs11" />
  <sodipodi:namedview
     inkscape:current-layer="_x33_0"
     inkscape:window-maximized="0"
     inkscape:window-y="0"
     inkscape:window-x="0"
     inkscape:cy="377.84904"
     inkscape:cx="450.44196"
     inkscape:zoom="0.984375"
     showgrid="false"
     id="namedview9"
     inkscape:window-height="1236"
     inkscape:window-width="1994"
     inkscape:pageshadow="2"
     inkscape:pageopacity="0"
     guidetolerance="10"
     gridtolerance="10"
     objecttolerance="10"
     borderopacity="1"
     bordercolor="#666666"
     pagecolor="#ffffff" />
  <path
     sodipodi:nodetypes="ssssssscccccs"
     id="path2"
     d="M 14.243,32 C 11.352,32 9,29.648 9,26.757 V 22 c 0,-0.666667 2,-0.666667 2,0 v 4.757 c 0,1.788 1.455,3.243 3.243,3.243 0.866,0 1.68,-0.337 2.293,-0.95 L 35.293,10.293 C 38.44,7.166 43.209,5.51 47.165,6.168 L 46.835,8.14 C 43.54,7.587 39.372,9.058 36.704,11.709 L 17.95,30.464 C 16.959,31.455 15.643,32 14.243,32 Z" />
  <path
     id="path4"
     fill="#f0bc5e"
     d="m60.878 3.464-.343-.343c-1.368-1.368-3.186-2.121-5.121-2.121-1.805 0-3.536.669-4.873 1.884l-5.514 5.013c-2.46 2.236-3.912 5.389-4.021 8.703l-39.354 42.306c-.421.452-.652 1.041-.652 1.658 0 1.343 1.093 2.436 2.436 2.436.618 0 1.207-.231 1.659-.652l42.305-39.354c3.313-.109 6.466-1.561 8.703-4.021l5.014-5.515c1.214-1.336 1.883-3.066 1.883-4.872 0-1.935-.753-3.753-2.122-5.122zm-3.463 6.637-4.423 4.911c-1.333 1.467-2.447 1.902-4.229 1.986-.474.022-.942-.148-1.278-.484s-.507-.804-.484-1.278c.084-1.781.519-2.895 1.986-4.229l4.913-4.423c.414-.376.951-.584 1.51-.584.6 0 1.164.234 1.588.658l.343.343c.425.424.659.988.659 1.588 0 .56-.208 1.097-.585 1.512z" />
  <path
     sodipodi:nodetypes="sscssscssccssscccssscccsssssssscssscscscccccccccccscc"
     id="path6"
     d="m 57.95,56.536 c -2.729,-2.729 -7.17,-2.729 -9.899,0 l -2.272,2.272 C 44.364,60.221 42.485,61 40.485,61 h -1 C 35.358,61 32,57.642 32,53.515 c 0,-2 0.779,-3.879 2.192,-5.293 L 54.207,28.207 C 56.666,25.748 58.02,22.478 58.02,19 c 0,-2.234 -0.565,-4.379 -1.617,-6.281 l 1.752,-1.946 C 58.7,10.173 59,9.397 59,8.589 59,7.722 58.662,6.907 58.049,6.294 L 57.706,5.951 C 56.521,4.766 54.468,4.719 53.23,5.84 l -4.916,4.427 c -1.584,1.44 -2.21,2.774 -2.312,4.921 -0.036,0.762 0.247,1.503 0.775,2.032 l 10e-4,0.001 c 0.5,0.499 1.188,0.779 1.903,0.779 0.043,0 0.087,-0.001 0.13,-0.003 2.147,-0.102 3.481,-0.728 4.925,-2.315 l 1.227,-1.363 c 1.914,4.084 1.198,9.106 -2.17,12.474 L 32.778,46.808 C 30.987,48.599 30,50.981 30,53.515 30,58.745 34.255,63 39.485,63 h 1 c 2.534,0 4.916,-0.987 6.707,-2.778 l 2.272,-2.272 c 0.944,-0.944 2.2,-1.464 3.536,-1.464 1.336,0 2.591,0.52 3.536,1.464 l 4.757,4.757 c 0.471333,0.471333 1.885333,-0.942667 1.414,-1.414 z M 54.572,7.324 c 0.477,-0.434 1.264,-0.415 1.72,0.041 l 0.343,0.343 C 56.87,7.944 57,8.256 57,8.589 57,8.9 56.885,9.198 56.672,9.432 L 55.26,11 C 54.933,10.582 54.588,10.175 54.206,9.794 53.828,9.414 53.42,9.069 53,8.74 Z m -2.319,7.015 c -1.087,1.195 -1.913,1.583 -3.536,1.66 -0.199,0.01 -0.392,-0.061 -0.524,-0.192 -0.131,-0.132 -0.202,-0.323 -0.192,-0.524 0.076,-1.623 0.464,-2.449 1.656,-3.532 l 1.828,-1.647 c 0.459,0.336 0.903,0.699 1.307,1.103 0.411,0.411 0.77,0.853 1.102,1.308 z" />
</svg>
