<?xml version="1.0" encoding="UTF-8" standalone="no"?>
<svg
   xmlns:dc="http://purl.org/dc/elements/1.1/"
   xmlns:cc="http://creativecommons.org/ns#"
   xmlns:rdf="http://www.w3.org/1999/02/22-rdf-syntax-ns#"
   xmlns:svg="http://www.w3.org/2000/svg"
   xmlns="http://www.w3.org/2000/svg"
   xmlns:sodipodi="http://sodipodi.sourceforge.net/DTD/sodipodi-0.dtd"
   xmlns:inkscape="http://www.inkscape.org/namespaces/inkscape"
   inkscape:export-ydpi="96"
   inkscape:export-xdpi="96"
   inkscape:export-filename="D:\Repositories\portfolio\webApp\static\images\notakto\icon.png"
   inkscape:version="1.0 (4035a4fb49, 2020-05-01)"
   sodipodi:docname="icon.svg"
   version="1.1"
   width="512"
   viewBox="0 0 512 512"
   height="512"
   enable-background="new 0 0 512 512"
   id="Capa_1">
  <metadata
     id="metadata29">
    <rdf:RDF>
      <cc:Work
         rdf:about="">
        <dc:format>image/svg+xml</dc:format>
        <dc:type
           rdf:resource="http://purl.org/dc/dcmitype/StillImage" />
        <dc:title></dc:title>
      </cc:Work>
    </rdf:RDF>
  </metadata>
  <defs
     id="defs27" />
  <sodipodi:namedview
     inkscape:snap-nodes="false"
     inkscape:current-layer="Capa_1"
     inkscape:window-maximized="0"
     inkscape:window-y="0"
     inkscape:window-x="-7"
     inkscape:cy="429.24475"
     inkscape:cx="211.22422"
     inkscape:zoom="0.69605824"
     inkscape:bbox-nodes="true"
     inkscape:snap-bbox="true"
     showguides="true"
     showgrid="true"
     id="namedview25"
     inkscape:window-height="1368"
     inkscape:window-width="1278"
     inkscape:pageshadow="2"
     inkscape:pageopacity="0"
     guidetolerance="10"
     gridtolerance="10"
     objecttolerance="10"
     borderopacity="1"
     bordercolor="#666666"
     pagecolor="#ffffff">
    <inkscape:grid
       id="grid1486"
       type="xygrid" />
  </sodipodi:namedview>
  <g
     transform="matrix(1.03125,0,0,1.03125,639.39421,-191.95606)"
     id="g1962">
    <circle
       cx="-371.77621"
       cy="434.38165"
       fill="#168de2"
       r="248.24243"
       id="circle1561"
       style="stroke-width:3.87879" />
    <g
       fill="#2e6bce"
       id="g1619"
       transform="matrix(3.8787879,0,0,3.8787879,-627.77623,178.38165)"
       style="fill:#3ba3ed;fill-opacity:1">
      <path
         d="m 42.96859,108.39761 c 0,-0.55516 0.45005,-1.00521 1.00522,-1.00521 h 6.32154 c 0.55278,0 1.00515,0.45232 1.00515,1.0052 0,0.55286 -0.45237,1.00524 -1.00515,1.00524 h -6.32154 c -0.55517,-1e-5 -1.00522,-0.45007 -1.00522,-1.00523 z"
         id="path1563"
         style="fill:#3ba3ed;fill-opacity:1" />
      <path
         d="m 40.10067,108.39761 c 0,0.55517 -0.45005,1.00523 -1.00522,1.00523 H 26.43891 c -0.55517,0 -1.00522,-0.45006 -1.00522,-1.00522 v -1e-5 c 0,-0.55516 0.45005,-1.00521 1.00522,-1.00521 h 12.65654 c 0.55517,0 1.00522,0.45005 1.00522,1.00521 z"
         id="path1565"
         style="fill:#3ba3ed;fill-opacity:1" />
      <path
         d="m 101.29789,111.29446 c -0.55518,0 -1.00513,0.45001 -1.00513,1.00519 0,0.55518 0.44995,1.00525 1.00513,1.00525 h 7.8103 c 0.71777,-0.65454 1.42139,-1.32428 2.10864,-2.01044 z"
         id="path1567"
         style="fill:#3ba3ed;fill-opacity:1" />
      <path
         d="m 92.20071,112.29956 c 0,-0.55517 0.45005,-1.00522 1.00522,-1.00522 h 4.12341 c 0.55278,0 1.00515,0.45233 1.00515,1.0052 0,0.55287 -0.45237,1.00524 -1.00515,1.00524 l -4.12341,-10e-6 c -0.55517,10e-6 -1.00522,-0.45004 -1.00522,-1.00521 z"
         id="path1569"
         style="fill:#3ba3ed;fill-opacity:1" />
      <path
         d="m 119.03129,42.02864 h 6.30859 c -0.27344,-0.67627 -0.55884,-1.34583 -0.85449,-2.01044 h -5.4541 c -0.55518,0 -1.00513,0.45001 -1.00513,1.00519 0,0.55524 0.44995,1.00525 1.00513,1.00525 z"
         id="path1571"
         style="fill:#3ba3ed;fill-opacity:1" />
      <path
         d="m 114.51167,40.01824 h 0.94627 c 0.55517,0 1.00522,0.45005 1.00522,1.00522 0,0.55517 -0.45005,1.00522 -1.00522,1.00522 h -0.94627 c -0.55514,0 -1.00515,-0.45006 -1.00515,-1.0052 v -5e-5 c 0,-0.55513 0.45001,-1.00519 1.00515,-1.00519 z"
         id="path1573"
         style="fill:#3ba3ed;fill-opacity:1" />
      <path
         d="m 44.02976,73.50411 c 0,0.55517 -0.45005,1.00522 -1.00522,1.00522 l -16.00727,10e-6 c -0.55296,0 -1.00515,-0.45238 -1.00515,-1.00524 0,-0.55287 0.45219,-1.0052 1.00515,-1.0052 h 16.00727 c 0.55517,-1e-5 1.00522,0.45004 1.00522,1.00521 z"
         id="path1575"
         style="fill:#3ba3ed;fill-opacity:1" />
      <path
         d="m 45.59109,73.50411 c 0,-0.55517 0.45005,-1.00522 1.00522,-1.00522 h 4.80804 c 0.55516,0 1.00522,0.45005 1.00522,1.00522 0,0.55517 -0.45005,1.00522 -1.00522,1.00522 h -4.80804 c -0.55516,0 -1.00522,-0.45005 -1.00522,-1.00522 z"
         id="path1577"
         style="fill:#3ba3ed;fill-opacity:1" />
      <path
         d="m 95.55791,48.85477 c 0,0.55517 -0.45005,1.00522 -1.00522,1.00522 H 78.54542 c -0.55296,0 -1.00515,-0.45237 -1.00515,-1.00524 0,-0.55287 0.45219,-1.0052 1.00515,-1.0052 h 16.00727 c 0.55517,0 1.00522,0.45005 1.00522,1.00522 z"
         id="path1579"
         style="fill:#3ba3ed;fill-opacity:1" />
      <path
         d="m 97.11924,48.85477 c 0,-0.55517 0.45005,-1.00522 1.00522,-1.00522 h 4.80804 c 0.55517,0 1.00522,0.45005 1.00522,1.00522 0,0.55516 -0.45005,1.00522 -1.00522,1.00522 h -4.80804 c -0.55517,0 -1.00522,-0.45005 -1.00522,-1.00522 z"
         id="path1581"
         style="fill:#3ba3ed;fill-opacity:1" />
      <path
         d="m 2.15498,61.65348 c 0.04004,-0.68018 0.09985,-1.3501 0.15991,-2.00977 h 9.88013 c 0.55981,0 1.01001,0.44971 1.01001,1 0,0.56006 -0.4502,1.00977 -1.01001,1.00977 z"
         id="path1583"
         style="fill:#3ba3ed;fill-opacity:1" />
      <path
         d="m 14.76461,60.64503 c 0,-0.55517 0.45005,-1.00522 1.00522,-1.00522 h 4.80804 c 0.55517,0 1.00522,0.45005 1.00522,1.00522 0,0.55517 -0.45005,1.00522 -1.00522,1.00522 h -4.80804 c -0.55517,0 -1.00522,-0.45005 -1.00522,-1.00522 z"
         id="path1585"
         style="fill:#3ba3ed;fill-opacity:1" />
      <path
         d="m 104.56673,81.79954 c 0,0.55517 -0.45005,1.00522 -1.00522,1.00522 l -16.00727,1e-5 c -0.55296,0 -1.00515,-0.45237 -1.00515,-1.00524 0,-0.55287 0.45219,-1.0052 1.00515,-1.0052 l 16.00727,-1e-5 c 0.55517,0 1.00522,0.45005 1.00522,1.00522 z"
         id="path1587"
         style="fill:#3ba3ed;fill-opacity:1" />
      <path
         d="m 106.12806,81.79954 c 0,-0.55517 0.45005,-1.00522 1.00522,-1.00522 h 4.80804 c 0.55517,0 1.00522,0.45005 1.00522,1.00522 0,0.55517 -0.45005,1.00522 -1.00522,1.00522 h -4.80804 c -0.55517,0 -1.00522,-0.45005 -1.00522,-1.00522 z"
         id="path1589"
         style="fill:#3ba3ed;fill-opacity:1" />
      <path
         d="m 90.60892,6.91341 h -4.52295 c -0.55518,0 -1.00513,0.45007 -1.00513,1.00519 v 6e-5 c 0,0.55518 0.44995,1.00519 1.00513,1.00519 h 8.85034 C 93.52128,8.20498 92.08207,7.52773 90.60892,6.91341 Z"
         id="path1591"
         style="fill:#3ba3ed;fill-opacity:1" />
      <path
         d="m 72.99117,8.92388 h 8.95542 c 0.55516,0 1.00522,-0.45005 1.00522,-1.00522 0,-0.55517 -0.45006,-1.00522 -1.00522,-1.00522 h -8.95542 c -0.55296,0 -1.00533,0.45237 -1.00533,1.00524 0,0.55287 0.45237,1.0052 1.00533,1.0052 z"
         id="path1593"
         style="fill:#3ba3ed;fill-opacity:1" />
      <path
         d="M 48.9818,19.86021 H 36.23176 c -0.55516,0 -1.00525,-0.45005 -1.00529,-1.00522 -5e-5,-0.55517 0.44997,-1.00522 1.00513,-1.00522 l 12.75004,10e-6 c 0.55296,0 1.00518,0.45237 1.00523,1.00524 4e-5,0.55286 -0.45211,1.00519 -1.00507,1.00519 z"
         id="path1595"
         style="fill:#3ba3ed;fill-opacity:1" />
      <path
         d="m 32.61391,18.85499 c 5e-5,0.55517 -0.44997,1.00522 -1.00513,1.00522 h -1.0803 c -0.55513,0 -1.00518,-0.45006 -1.00523,-1.0052 -4e-5,-0.55518 0.44993,-1.00524 1.00507,-1.00524 h 1.08029 c 0.55517,0 1.00526,0.45005 1.0053,1.00522 z"
         id="path1597"
         style="fill:#3ba3ed;fill-opacity:1" />
      <path
         d="m 78.5497,121.66982 -12.75005,-1e-5 c -0.55516,0 -1.00525,-0.45005 -1.00529,-1.00522 -5e-5,-0.55517 0.44997,-1.00522 1.00513,-1.00522 l 12.75005,1e-5 c 0.55296,0 1.00518,0.45237 1.00523,1.00524 5e-5,0.55287 -0.45212,1.0052 -1.00507,1.0052 z"
         id="path1599"
         style="fill:#3ba3ed;fill-opacity:1" />
      <path
         d="m 62.18181,120.66459 c 5e-5,0.55517 -0.44997,1.00522 -1.00513,1.00522 h -1.0803 c -0.55513,0 -1.00518,-0.45006 -1.00523,-1.0052 -5e-5,-0.55518 0.44993,-1.00524 1.00507,-1.00524 h 1.0803 c 0.55516,0 1.00524,0.45005 1.00529,1.00522 z"
         id="path1601"
         style="fill:#3ba3ed;fill-opacity:1" />
      <path
         d="m 122.73325,66 -12.75005,-1e-5 c -0.55516,0 -1.00525,-0.45005 -1.00529,-1.00522 -5e-5,-0.55517 0.44997,-1.00522 1.00513,-1.00522 l 12.75005,10e-6 c 0.55296,0 1.00518,0.45237 1.00523,1.00524 5e-5,0.55287 -0.45211,1.0052 -1.00507,1.0052 z"
         id="path1603"
         style="fill:#3ba3ed;fill-opacity:1" />
      <path
         d="m 106.36536,64.99477 c 5e-5,0.55517 -0.44997,1.00522 -1.00513,1.00522 h -1.08029 c -0.55514,0 -1.00519,-0.45006 -1.00523,-1.0052 -4e-5,-0.55518 0.44994,-1.00524 1.00507,-1.00524 h 1.08029 c 0.55517,10e-6 1.00525,0.45006 1.00529,1.00522 z"
         id="path1605"
         style="fill:#3ba3ed;fill-opacity:1" />
      <path
         d="M 34.66043,39.74488 H 21.91039 c -0.55517,0 -1.00525,-0.45005 -1.0053,-1.00522 -4e-5,-0.55516 0.44997,-1.00522 1.00513,-1.00522 l 12.75004,1e-5 c 0.55296,0 1.00518,0.45237 1.00523,1.00524 5e-5,0.55286 -0.4521,1.00519 -1.00506,1.00519 z"
         id="path1607"
         style="fill:#3ba3ed;fill-opacity:1" />
      <path
         d="m 18.29254,38.73965 c 5e-5,0.55517 -0.44997,1.00522 -1.00513,1.00522 h -1.0803 c -0.55513,0 -1.00518,-0.45006 -1.00523,-1.0052 -4e-5,-0.55518 0.44993,-1.00524 1.00507,-1.00524 h 1.08029 c 0.55517,10e-6 1.00525,0.45006 1.0053,1.00522 z"
         id="path1609"
         style="fill:#3ba3ed;fill-opacity:1" />
      <path
         d="M 104.49433,27.38131 H 91.74429 c -0.55517,0 -1.00526,-0.45005 -1.00529,-1.00522 -5e-5,-0.55517 0.44997,-1.00522 1.00513,-1.00522 h 12.75005 c 0.55296,0 1.00519,0.45237 1.00523,1.00524 3e-5,0.55288 -0.45212,1.00521 -1.00508,1.0052 z"
         id="path1611"
         style="fill:#3ba3ed;fill-opacity:1" />
      <path
         d="m 88.12644,26.37609 c 5e-5,0.55517 -0.44997,1.00522 -1.00513,1.00522 h -1.08029 c -0.55513,0 -1.00518,-0.45006 -1.00523,-1.0052 -5e-5,-0.55518 0.44993,-1.00524 1.00507,-1.00524 h 1.08029 c 0.55517,0 1.00525,0.45005 1.00529,1.00522 z"
         id="path1613"
         style="fill:#3ba3ed;fill-opacity:1" />
      <path
         d="m 20.78518,93.33267 c 0,0.55517 -0.45005,1.00522 -1.00522,1.00522 h -1.67143 c -0.55517,0 -1.00522,-0.45005 -1.00522,-1.00521 v -1e-5 c 0,-0.55517 0.45005,-1.00522 1.00522,-1.00522 h 1.67143 c 0.55517,0 1.00522,0.45005 1.00522,1.00522 z"
         id="path1615"
         style="fill:#3ba3ed;fill-opacity:1" />
      <path
         d="M 13.43852,92.32748 H 7.66801 c 0.30518,0.67554 0.61621,1.3476 0.94409,2.01044 h 4.82642 c 0.55518,0 1.00537,-0.45007 1.00537,-1.00525 0,-0.55518 -0.4502,-1.00519 -1.00537,-1.00519 z"
         id="path1617"
         style="fill:#3ba3ed;fill-opacity:1" />
    </g>
  </g>
  <path
     d="m 417.7722,252.16669 c 2.1e-4,2.22233 -1.80118,4.02387 -4.02353,4.02387 h -4.32436 c -2.22218,0 -4.02372,-1.80158 -4.02387,-4.02379 -1.7e-4,-2.22238 1.80109,-4.02396 4.02325,-4.02396 h 4.32436 c 2.22235,4e-5 4.02405,1.80158 4.02415,4.02388 z"
     id="path898"
     style="fill:#2e6bce;stroke-width:4.00298" />
  <g
     transform="matrix(4.0029778,0,0,4.0029778,-8.0059369,-8.0059369)"
     fill="#2e6bce"
     id="g918">
    <path
       d="m 112.40463,67.06665 c 0,2.24052 -1.8163,4.05682 -4.05682,4.05682 H 25.7855 c -2.24052,0 -4.05682,-1.8163 -4.05682,-4.05682 v -10e-6 c 0,-2.24052 1.8163,-4.05681 4.05682,-4.05681 h 82.56232 c 2.24051,10e-6 4.05681,1.8163 4.05681,4.05682 z"
       id="path914" />
    <path
       d="m 67.06666,21.72868 c -2.24052,0 -4.05682,1.8163 -4.05682,4.05681 v 82.56232 c 0,2.24052 1.8163,4.05682 4.05681,4.05682 h 1e-5 c 2.24052,0 4.05682,-1.8163 4.05682,-4.05682 V 25.7855 c -1e-5,-2.24052 -1.8163,-4.05682 -4.05682,-4.05682 z"
       id="path916" />
  </g>
  <g
     transform="matrix(4.0029778,0,0,4.0029778,-8.0059369,-8.0059369)"
     id="g954">
    <g
       id="g946">
      <g
         id="g944">
        <path
           d="m 53.5669,53.56705 c -1.13786,1.13826 -2.98265,1.13826 -4.12092,0 L 32.39032,36.51098 c -1.13745,-1.13826 -1.13786,-2.98225 4e-4,-4.12052 1.13786,-1.13826 2.98266,-1.13826 4.12092,0 L 53.5673,49.44653 c 1.13768,1.13849 1.13791,2.98221 -4e-4,4.12052 z"
           fill="#2e6bce"
           id="path942" />
      </g>
    </g>
    <g
       id="g952">
      <g
         id="g950">
        <path
           d="M 53.56731,36.51098 36.51164,53.56705 c -1.13826,1.13826 -2.98306,1.13826 -4.12092,0 -1.13826,-1.13826 -1.13786,-2.98225 -4e-4,-4.12051 L 49.44598,32.39047 c 1.13826,-1.13826 2.98306,-1.13826 4.12092,0 1.13813,1.13812 1.13826,2.98184 4.1e-4,4.12051 z"
           fill="#2e6bce"
           id="path948" />
      </g>
    </g>
  </g>
  <g
     transform="matrix(4.0029778,0,0,4.0029778,-8.0059369,-8.0059369)"
     fill="#ededed"
     id="g962">
    <path
       d="m 111.33797,65.99999 c 0,2.24052 -1.8163,4.05682 -4.05682,4.05682 H 24.71884 c -2.24052,0 -4.05681,-1.8163 -4.05681,-4.05682 v -1e-5 c 0,-2.24051 1.8163,-4.05681 4.05681,-4.05681 h 82.56232 c 2.24052,10e-6 4.05681,1.81631 4.05681,4.05682 z"
       id="path958" />
    <path
       d="m 66.00001,20.66202 h -2e-5 c -2.24051,0 -4.05681,1.8163 -4.05681,4.05682 v 82.56232 c 0,2.24052 1.8163,4.05682 4.05681,4.05682 h 2e-5 c 2.24052,0 4.05681,-1.8163 4.05681,-4.05682 V 24.71884 c 0,-2.24052 -1.8163,-4.05682 -4.05681,-4.05682 z"
       id="path960" />
  </g>
  <g
     transform="matrix(1.0320177,0,0,1.0320177,-623.41611,-6.9575338)"
     id="g1316">
    <g
       id="g936"
       transform="matrix(3.8787879,0,0,3.8787879,596.31746,-1.0158774)">
      <g
         id="g928">
        <g
           id="g926">
          <path
             id="path924"
             fill="#2e6bce"
             d="m 80.56637,101.7428 c -1.13827,-1.13786 -1.13827,-2.98266 0,-4.12093 L 97.62244,80.56621 c 1.13826,-1.13744 2.98225,-1.13786 4.12051,4.1e-4 1.13826,1.13786 1.13826,2.98266 0,4.12092 L 84.68688,101.7432 c -1.13848,1.13767 -2.98221,1.1379 -4.12051,-4e-4 z" />
        </g>
      </g>
      <g
         id="g934">
        <g
           id="g932">
          <path
             id="path930"
             fill="#2e6bce"
             d="M 97.62244,101.7432 80.56637,84.68754 c -1.13827,-1.13826 -1.13827,-2.98306 0,-4.12092 1.13826,-1.13827 2.98225,-1.13786 4.12051,-4.1e-4 l 17.05607,17.05566 c 1.13826,1.13827 1.13826,2.98307 0,4.12093 -1.13813,1.13813 -2.98185,1.13826 -4.12051,4e-4 z" />
        </g>
      </g>
    </g>
    <g
       id="g980"
       transform="matrix(3.8787879,0,0,3.8787879,596.31746,-1.0158774)">
      <g
         id="g972">
        <g
           id="g970">
          <path
             id="path968"
             fill="#fad553"
             d="m 79.49971,100.67614 c -1.13827,-1.13786 -1.13827,-2.98266 0,-4.12093 L 96.55578,79.49955 c 1.13826,-1.13745 2.98225,-1.13786 4.12051,4e-4 1.13826,1.13786 1.13826,2.98266 0,4.12092 l -17.05607,17.05566 c -1.13848,1.13769 -2.9822,1.13792 -4.12051,-3.9e-4 z" />
        </g>
      </g>
      <g
         id="g978">
        <g
           id="g976">
          <path
             id="path974"
             fill="#fad553"
             d="M 96.55578,100.67654 79.49971,83.62088 c -1.13827,-1.13826 -1.13827,-2.98306 0,-4.12092 1.13826,-1.13827 2.98225,-1.13786 4.12051,-4e-4 l 17.05607,17.05566 c 1.13826,1.13827 1.13826,2.98307 0,4.12093 -1.13813,1.13812 -2.98185,1.13825 -4.12051,3.9e-4 z" />
        </g>
      </g>
    </g>
  </g>
  <g
     transform="matrix(4.0029778,0,0,4.0029778,-8.0059369,-8.0059369)"
     id="g998">
    <g
       id="g990">
      <g
         id="g988">
        <path
           d="m 52.50024,52.50039 c -1.13786,1.13826 -2.98265,1.13826 -4.12092,0 L 31.32366,35.44432 c -1.13745,-1.13826 -1.13786,-2.98225 4.1e-4,-4.12052 1.13786,-1.13826 2.98266,-1.13826 4.12092,0 l 17.05566,17.05607 c 1.13767,1.13849 1.1379,2.98221 -4.1e-4,4.12052 z"
           fill="#fad553"
           id="path986" />
      </g>
    </g>
    <g
       id="g996">
      <g
         id="g994">
        <path
           d="M 52.50065,35.44432 35.44498,52.50039 c -1.13826,1.13826 -2.98306,1.13826 -4.12092,0 -1.13826,-1.13826 -1.13786,-2.98225 -4.1e-4,-4.12051 L 48.37931,31.32381 c 1.13826,-1.13826 2.98306,-1.13826 4.12092,0 1.13814,1.13813 1.13827,2.98185 4.2e-4,4.12051 z"
           fill="#fad553"
           id="path992" />
      </g>
    </g>
  </g>
  <g
     id="g1330"
     transform="matrix(4.0029778,0,0,4.0029778,-8.0059266,-200.85339)">
    <g
       id="g1322">
      <g
         id="g1320">
        <path
           id="path1318"
           fill="#2e6bce"
           d="m 80.56637,101.7428 c -1.13827,-1.13786 -1.13827,-2.98266 0,-4.12093 L 97.62244,80.56621 c 1.13826,-1.13744 2.98225,-1.13786 4.12051,4.1e-4 1.13826,1.13786 1.13826,2.98266 0,4.12092 L 84.68688,101.7432 c -1.13848,1.13767 -2.98221,1.1379 -4.12051,-4e-4 z" />
      </g>
    </g>
    <g
       id="g1328">
      <g
         id="g1326">
        <path
           id="path1324"
           fill="#2e6bce"
           d="M 97.62244,101.7432 80.56637,84.68754 c -1.13827,-1.13826 -1.13827,-2.98306 0,-4.12092 1.13826,-1.13827 2.98225,-1.13786 4.12051,-4.1e-4 l 17.05607,17.05566 c 1.13826,1.13827 1.13826,2.98307 0,4.12093 -1.13813,1.13813 -2.98185,1.13826 -4.12051,4e-4 z" />
      </g>
    </g>
  </g>
  <g
     transform="matrix(4.0029778,0,0,4.0029778,-200.85259,-8.0059297)"
     id="g1484">
    <g
       id="g1476">
      <g
         id="g1474">
        <path
           d="m 80.56637,101.7428 c -1.13827,-1.13786 -1.13827,-2.98266 0,-4.12093 L 97.62244,80.56621 c 1.13826,-1.13744 2.98225,-1.13786 4.12051,4.1e-4 1.13826,1.13786 1.13826,2.98266 0,4.12092 L 84.68688,101.7432 c -1.13848,1.13767 -2.98221,1.1379 -4.12051,-4e-4 z"
           fill="#2e6bce"
           id="path1472" />
      </g>
    </g>
    <g
       id="g1482">
      <g
         id="g1480">
        <path
           d="M 97.62244,101.7432 80.56637,84.68754 c -1.13827,-1.13826 -1.13827,-2.98306 0,-4.12092 1.13826,-1.13827 2.98225,-1.13786 4.12051,-4.1e-4 l 17.05607,17.05566 c 1.13826,1.13827 1.13826,2.98307 0,4.12093 -1.13813,1.13813 -2.98185,1.13826 -4.12051,4e-4 z"
           fill="#2e6bce"
           id="path1478" />
      </g>
    </g>
  </g>
  <g
     id="g1344"
     transform="matrix(4.0029778,0,0,4.0029778,-8.0059266,-200.85339)">
    <g
       style="fill:#f34b50;fill-opacity:1"
       id="g1336">
      <g
         style="fill:#f34b50;fill-opacity:1"
         id="g1334">
        <path
           style="fill:#f34b50;fill-opacity:1"
           id="path1332"
           fill="#fad553"
           d="m 79.49971,100.67614 c -1.13827,-1.13786 -1.13827,-2.98266 0,-4.12093 L 96.55578,79.49955 c 1.13826,-1.13745 2.98225,-1.13786 4.12051,4e-4 1.13826,1.13786 1.13826,2.98266 0,4.12092 l -17.05607,17.05566 c -1.13848,1.13769 -2.9822,1.13792 -4.12051,-3.9e-4 z" />
      </g>
    </g>
    <g
       style="fill:#f34b50;fill-opacity:1"
       id="g1342">
      <g
         style="fill:#f34b50;fill-opacity:1"
         id="g1340">
        <path
           style="fill:#f34b50;fill-opacity:1"
           id="path1338"
           fill="#fad553"
           d="M 96.55578,100.67654 79.49971,83.62088 c -1.13827,-1.13826 -1.13827,-2.98306 0,-4.12092 1.13826,-1.13827 2.98225,-1.13786 4.12051,-4e-4 l 17.05607,17.05566 c 1.13826,1.13827 1.13826,2.98307 0,4.12093 -1.13813,1.13812 -2.98185,1.13825 -4.12051,3.9e-4 z" />
      </g>
    </g>
  </g>
  <g
     transform="matrix(4.0029778,0,0,4.0029778,-200.85256,-8.0059297)"
     id="g1470">
    <g
       id="g1462"
       style="fill:#f34b50;fill-opacity:1">
      <g
         id="g1460"
         style="fill:#f34b50;fill-opacity:1">
        <path
           d="m 79.49971,100.67614 c -1.13827,-1.13786 -1.13827,-2.98266 0,-4.12093 L 96.55578,79.49955 c 1.13826,-1.13745 2.98225,-1.13786 4.12051,4e-4 1.13826,1.13786 1.13826,2.98266 0,4.12092 l -17.05607,17.05566 c -1.13848,1.13769 -2.9822,1.13792 -4.12051,-3.9e-4 z"
           fill="#fad553"
           id="path1458"
           style="fill:#f34b50;fill-opacity:1" />
      </g>
    </g>
    <g
       id="g1468"
       style="fill:#f34b50;fill-opacity:1">
      <g
         id="g1466"
         style="fill:#f34b50;fill-opacity:1">
        <path
           d="M 96.55578,100.67654 79.49971,83.62088 c -1.13827,-1.13826 -1.13827,-2.98306 0,-4.12092 1.13826,-1.13827 2.98225,-1.13786 4.12051,-4e-4 l 17.05607,17.05566 c 1.13826,1.13827 1.13826,2.98307 0,4.12093 -1.13813,1.13812 -2.98185,1.13825 -4.12051,3.9e-4 z"
           fill="#fad553"
           id="path1464"
           style="fill:#f34b50;fill-opacity:1" />
      </g>
    </g>
  </g>
</svg>
