<?xml version="1.0" encoding="UTF-8" standalone="no"?>
<svg
   xmlns:dc="http://purl.org/dc/elements/1.1/"
   xmlns:cc="http://creativecommons.org/ns#"
   xmlns:rdf="http://www.w3.org/1999/02/22-rdf-syntax-ns#"
   xmlns:svg="http://www.w3.org/2000/svg"
   xmlns="http://www.w3.org/2000/svg"
   xmlns:sodipodi="http://sodipodi.sourceforge.net/DTD/sodipodi-0.dtd"
   xmlns:inkscape="http://www.inkscape.org/namespaces/inkscape"
   inkscape:version="1.0 (4035a4fb49, 2020-05-01)"
   inkscape:export-ydpi="96.5625"
   inkscape:export-xdpi="96.5625"
   inkscape:export-filename="D:\Repositories\portfolio\webApp\static\images\a-new-way-to-knit\icon.png"
   sodipodi:docname="icon.svg"
   version="1.1"
   width="512"
   viewBox="0 0 512 512"
   height="512"
   enable-background="new 0 0 512 512"
   id="Capa_1">
  <metadata
     id="metadata27">
    <rdf:RDF>
      <cc:Work
         rdf:about="">
        <dc:format>image/svg+xml</dc:format>
        <dc:type
           rdf:resource="http://purl.org/dc/dcmitype/StillImage" />
      </cc:Work>
    </rdf:RDF>
  </metadata>
  <defs
     id="defs25" />
  <sodipodi:namedview
     inkscape:current-layer="Capa_1"
     inkscape:window-maximized="0"
     inkscape:window-y="-32000"
     inkscape:window-x="-32000"
     inkscape:cy="256"
     inkscape:cx="256"
     inkscape:zoom="1.96875"
     showgrid="false"
     id="namedview23"
     inkscape:window-height="480"
     inkscape:window-width="776"
     inkscape:pageshadow="2"
     inkscape:pageopacity="0"
     guidetolerance="10"
     gridtolerance="10"
     objecttolerance="10"
     borderopacity="1"
     bordercolor="#666666"
     pagecolor="#ffffff" />
  <g
     id="g20">
    <path
       id="path2"
       fill="#62a4fb"
       d="m339.048 199.428c-1.753 0-3.515-.593-4.962-1.808-3.269-2.742-3.695-7.616-.953-10.885l62.632-74.644c1.642-1.956 2.546-4.439 2.546-6.993 0-5.999-4.881-10.879-10.88-10.879h-61.417c-14.177 0-25.71-11.533-25.71-25.71 0-14.176 11.533-25.709 25.71-25.709h115.367c4.267 0 7.726 3.459 7.726 7.726s-3.459 7.726-7.726 7.726h-115.366c-5.656 0-10.257 4.601-10.257 10.257s4.601 10.258 10.257 10.258h61.417c14.52 0 26.332 11.813 26.332 26.332 0 6.182-2.188 12.193-6.161 16.927l-62.631 74.644c-1.529 1.82-3.719 2.758-5.924 2.758z" />
    <path
       id="path4"
       fill="#e27c48"
       d="m29.445 236.004c-7.241-3.185-15.663-1.982-21.723 3.103l-.926.777c-8.049 6.754-9.099 18.753-2.345 26.802l26.849 31.998c6.754 8.049 18.753 9.099 26.802 2.345l.926-.777c6.06-5.085 8.707-13.17 6.828-20.854s.767-15.769 6.828-20.854l141.412-118.659c7.081-5.941 8.004-16.498 2.063-23.578-5.941-7.081-16.498-8.004-23.578-2.063l-141.413 118.657c-6.06 5.085-14.481 6.288-21.723 3.103z" />
    <path
       id="path6"
       fill="#dd552d"
       d="m6.796 239.883.926-.777c3.59-3.013 8.01-4.65 12.521-4.833-1.011 5.403.309 11.188 4.107 15.714l26.85 31.998c3.798 4.527 9.265 6.831 14.762 6.774-.963 4.411-3.343 8.48-6.933 11.492l-.926.777c-8.049 6.754-20.048 5.704-26.802-2.345l-26.85-31.998c-6.753-8.048-5.704-20.048 2.345-26.802z" />
    <path
       id="path8"
       fill="#e27c48"
       d="m482.555 236.004c7.241-3.185 15.663-1.982 21.723 3.103l.926.777c8.049 6.754 9.099 18.753 2.345 26.802l-26.849 31.998c-6.754 8.049-18.753 9.099-26.802 2.345l-.926-.777c-6.06-5.085-8.707-13.17-6.828-20.854s-.767-15.769-6.828-20.854l-141.412-118.661c-7.081-5.941-8.004-16.498-2.063-23.578 5.941-7.081 16.498-8.004 23.578-2.063l141.413 118.659c6.06 5.085 14.481 6.288 21.723 3.103z" />
    <path
       id="path10"
       fill="#dd552d"
       d="m505.204 239.883-.926-.777c-3.59-3.013-8.01-4.65-12.521-4.833 1.011 5.403-.309 11.188-4.107 15.714l-26.85 31.998c-3.798 4.527-9.265 6.831-14.762 6.774.963 4.411 3.343 8.48 6.933 11.492l.926.777c8.049 6.754 20.048 5.704 26.802-2.345l26.849-31.998c6.754-8.048 5.705-20.048-2.344-26.802z" />
    <path
       id="path12"
       fill="#80b6fc"
       d="m392.748 375.701 33.892 27v50.799c0 8.67-7.031 15.701-15.701 15.701h-309.879c-8.67 0-15.701-7.031-15.701-15.701v-50.798l33.902-27.001 37.647 18.879c5 2.51 10.883 2.509 15.883-.001l37.639-18.879 37.64 18.879c5 2.51 10.888 2.509 15.888-.001l37.633-18.878 37.638 18.878c5 2.51 10.889 2.51 15.889 0z" />
    <path
       id="path14"
       fill="#80b6fc"
       d="m450.7 217.26-22.18 26.44c-1.21 1.45-1.88 3.28-1.88 5.17l.001 91.329-25.951-3.019c-5-2.51-10.889-2.51-15.889 0l-37.63 18.878-37.633-18.878c-5-2.51-10.889-2.51-15.889 0l-37.639 18.878-37.639-18.879c-5-2.51-10.893-2.51-15.883.001l-37.639 18.879-37.647-18.879c-4.99-2.51-10.883-2.51-15.883 0l-25.96 3.02.001-91.33c0-1.89-.67-3.72-1.88-5.17l-22.18-26.44c-6.29-7.49-5.32-18.65 2.18-24.94 3.31-2.78 7.35-4.14 11.37-4.14 3.72 0 7.42 1.17 10.51 3.45 1.11.82 2.12 1.78 3.05 2.87l25.03 29.84 38.9-32.64-25.03-29.83c-6.29-7.49-5.3-18.66 2.18-24.94 3.32-2.78 7.35-4.14 11.38-4.14 5.05 0 10.07 2.15 13.57 6.32l22.74 27.11c1.44 1.73 3.58 2.72 5.83 2.72h145.98c2.25 0 4.39-.99 5.83-2.72l22.74-27.11c3.5-4.17 8.52-6.32 13.57-6.32 4.03 0 8.06 1.36 11.38 4.14 7.48 6.28 8.47 17.45 2.18 24.94l-25.03 29.83 38.9 32.64 25.03-29.84c.93-1.09 1.94-2.05 3.05-2.87 3.09-2.28 6.79-3.45 10.51-3.45 4.02 0 8.06 1.36 11.37 4.14 7.5 6.29 8.47 17.45 2.18 24.94z" />
    <path
       id="path16"
       fill="#62a4fb"
       d="m410.94 439.034h-309.88c-8.672 0-15.701-7.029-15.701-15.701l.001 30.167c0 8.672 7.029 15.701 15.701 15.701h309.88c8.672 0 15.701-7.029 15.701-15.701l.001-30.167c-.002 8.672-7.031 15.701-15.703 15.701z" />
    <path
       id="path18"
       fill="#ddebfd"
       d="m426.641 340.199-25.951-13.019c-4.999-2.509-10.889-2.507-15.889 0l-30.842 15.473c-4.271 2.143-9.304 2.143-13.575 0l-30.845-15.473c-4.999-2.509-10.889-2.507-15.889 0l-30.852 15.474c-4.271 2.142-9.302 2.142-13.573 0l-30.852-15.474c-4.998-2.507-10.886-2.507-15.884 0l-30.853 15.475c-4.271 2.142-9.302 2.142-13.572 0l-30.861-15.476c-4.998-2.507-10.885-2.507-15.883 0l-25.96 13.02v62.502l27.402-13.742c4.09-2.051 8.908-2.051 12.998 0l31.148 15.62c4.999 2.507 10.884 2.507 15.883-.001l31.138-15.618c4.091-2.052 8.91-2.052 13 0l31.14 15.619c4.999 2.507 10.89 2.507 15.888-.001l31.133-15.617c4.091-2.052 8.91-2.052 13.001 0l31.138 15.618c4.999 2.509 10.889 2.507 15.889 0l31.129-15.617c4.091-2.052 8.911-2.052 13.002 0l27.391 13.74v-62.503z" />
  </g>
</svg>
