<?xml version="1.0" encoding="UTF-8" standalone="no"?>
<svg
   xmlns:dc="http://purl.org/dc/elements/1.1/"
   xmlns:cc="http://creativecommons.org/ns#"
   xmlns:rdf="http://www.w3.org/1999/02/22-rdf-syntax-ns#"
   xmlns:svg="http://www.w3.org/2000/svg"
   xmlns="http://www.w3.org/2000/svg"
   xmlns:sodipodi="http://sodipodi.sourceforge.net/DTD/sodipodi-0.dtd"
   xmlns:inkscape="http://www.inkscape.org/namespaces/inkscape"
   inkscape:version="1.0 (4035a4fb49, 2020-05-01)"
   inkscape:export-ydpi="767.79999"
   inkscape:export-xdpi="767.79999"
   inkscape:export-filename="D:\Repositories\portfolio\webApp\static\images\grind\icon.png"
   sodipodi:docname="icon.svg"
   id="svg29"
   version="1.1"
   viewBox="0 0 64 64">
  <metadata
     id="metadata35">
    <rdf:RDF>
      <cc:Work
         rdf:about="">
        <dc:format>image/svg+xml</dc:format>
        <dc:type
           rdf:resource="http://purl.org/dc/dcmitype/StillImage" />
        <dc:title></dc:title>
      </cc:Work>
    </rdf:RDF>
  </metadata>
  <defs
     id="defs33" />
  <sodipodi:namedview
     inkscape:current-layer="_01"
     inkscape:window-maximized="0"
     inkscape:window-y="0"
     inkscape:window-x="0"
     inkscape:cy="34.887267"
     inkscape:cx="25.579747"
     inkscape:zoom="7.875"
     inkscape:bbox-nodes="true"
     inkscape:snap-nodes="false"
     inkscape:snap-bbox="true"
     showgrid="true"
     id="namedview31"
     inkscape:window-height="1099"
     inkscape:window-width="1456"
     inkscape:pageshadow="2"
     inkscape:pageopacity="0"
     guidetolerance="10"
     gridtolerance="10"
     objecttolerance="10"
     borderopacity="1"
     bordercolor="#666666"
     pagecolor="#ffffff">
    <inkscape:grid
       originy="0"
       originx="0"
       id="grid37"
       type="xygrid" />
  </sodipodi:namedview>
  <g
     transform="matrix(1.0666021,0,0,1.0666021,-2.1332029,-2.6737773)"
     data-name="01"
     id="_01">
    <path
       id="path2"
       fill="#263238"
       d="m 61.71,26.29 -5,-5 A 1,1 0 0 0 56,21 H 27.45 l -6.7,-7.66 A 1,1 0 0 0 20,13 H 3 a 1,1 0 0 0 -1,1 5,5 0 0 0 5,5 4.92,4.92 0 0 0 -1,3 v 7.1 A 5,5 0 0 0 2,34 v 15 a 1,1 0 0 0 2,0 V 42 H 7.06 A 8.26,8.26 0 0 0 7,43 9,9 0 0 0 24.47,46 h 3.31 A 3,3 0 0 0 30,47 h 2 a 3,3 0 0 0 2.22,-1 h 3.31 A 9,9 0 1 0 47.31,34.11 L 50.74,30.67 61.25,28 a 1,1 0 0 0 0.71,-0.71 1,1 0 0 0 -0.25,-1 z" />
    <circle
       id="circle4"
       r="7"
       fill="#b0bec5"
       cy="43"
       cx="16" />
    <circle
       id="circle6"
       r="7"
       fill="#b0bec5"
       cy="43"
       cx="46" />
    <circle
       id="circle8"
       r="4"
       fill="#263238"
       cy="43"
       cx="16" />
    <circle
       id="circle10"
       r="2"
       fill="#ffe0b2"
       cy="43"
       cx="16" />
    <circle
       id="circle12"
       r="4"
       fill="#263238"
       cy="43"
       cx="46" />
    <circle
       r="2"
       id="circle14"
       fill="#ffe0b2"
       cy="43"
       cx="46" />
    <path
       id="path16"
       fill="#ffb74d"
       d="m 16.38,19 5,10 H 8 v -2 h 6 a 1,1 0 0 0 1,-1 v -7 z" />
    <path
       id="path18"
       fill="#ffe0b2"
       d="M 13,25 H 8 v -3 a 3,3 0 0 1 3,-3 h 2 z" />
    <path
       id="path20"
       fill="#ffb74d"
       d="m 4,40 v -6 a 3,3 0 0 1 3,-3 h 15.38 l 1.5,3 H 16 a 9,9 0 0 0 -8.47,6 z" />
    <rect
       id="rect22"
       y="41"
       x="29"
       width="4"
       rx="1"
       height="4"
       fill="#fb8c00" />
    <path
       id="path24"
       fill="#ffb74d"
       d="M 44.44,34.14 A 9,9 0 0 0 37,43 8.26,8.26 0 0 0 37.06,44 H 35 v -2 a 3,3 0 0 0 -3,-3 h -2 a 3,3 0 0 0 -3,3 v 2 H 24.94 A 8.26,8.26 0 0 0 25,43 9,9 0 0 0 21.64,36 h 3.24 l 0.23,0.45 A 1,1 0 0 0 26,37 a 1.07,1.07 0 0 0 0.25,0 l 20.69,-5.32 z" />
    <path
       id="path26"
       fill="#fb8c00"
       d="M 26.53,34.83 17.89,17.55 A 1,1 0 0 0 17,17 H 7 A 3,3 0 0 1 4.17,15 h 15.38 l 6.7,7.66 A 1,1 0 0 0 27,23 h 28.59 l 3.46,3.47 z" />
  </g>
</svg>
